<?xml version="1.0" standalone="no"?><!DOCTYPE svg PUBLIC "-//W3C//DTD SVG 1.1//EN" "http://www.w3.org/Graphics/SVG/1.1/DTD/svg11.dtd"><svg t="1617295155504" class="icon" viewBox="0 0 1024 1024" version="1.1" xmlns="http://www.w3.org/2000/svg" p-id="5968" width="128" height="128" xmlns:xlink="http://www.w3.org/1999/xlink"><defs><style type="text/css">@font-face { font-family: uc-nexus-iconfont; src: url("chrome-extension://pogijhnlcfmcppgimcaccdkmbedjkmhi/res/font_9qmmi8b8jsxxbt9.woff") format("woff"), url("chrome-extension://pogijhnlcfmcppgimcaccdkmbedjkmhi/res/font_9qmmi8b8jsxxbt9.ttf") format("truetype"); }
</style></defs><path d="M511.9 104.8c-225.5 0-408.4 182.8-408.4 408.4 0 225.5 182.8 408.4 408.4 408.4 225.5 0 408.4-182.8 408.4-408.4 0-225.5-182.8-408.4-408.4-408.4z m185.2 547.7c10.6 10.6 10.6 27.8 0 38.4l-7.5 7.5c-10.6 10.6-27.8 10.6-38.4 0L511.9 559.1 372.7 698.4c-10.6 10.6-27.8 10.6-38.4 0l-7.5-7.5c-10.6-10.6-10.6-27.8 0-38.4L466 513.2 326.8 374c-10.6-10.6-10.6-27.8 0-38.4l7.5-7.5c10.6-10.6 27.8-10.6 38.4 0L512 467.4 651.2 328c10.6-10.6 27.8-10.6 38.4 0l7.5 7.5c10.6 10.6 10.6 27.8 0 38.4L557.9 513.2l139.2 139.3z" fill="#1afa29" p-id="5969"></path></svg>