<?xml version="1.0" standalone="no"?><!DOCTYPE svg PUBLIC "-//W3C//DTD SVG 1.1//EN" "http://www.w3.org/Graphics/SVG/1.1/DTD/svg11.dtd"><svg class="icon" width="32px" height="32.00px" viewBox="0 0 1024 1024" version="1.1" xmlns="http://www.w3.org/2000/svg"><path d="M512 512m-512 0a512 512 0 1 0 1024 0 512 512 0 1 0-1024 0Z" fill="#9FF291" /><path d="M741.42208 221.33248L483.84 436.05504 153.45152 463.9232S467.49184 972.73344 512 1024c282.76736 0 512-229.23264 512-512l-282.57792-290.66752z" fill="#68CC56" /><path d="M411.35104 342.12864c0 19.70176 35.81952 57.31328 64.47616 50.1504 25.07264-7.16288 50.1504-34.02752 60.89216-35.81952l223.87712 220.29312c19.70176-19.70176 82.38592-82.38592 93.1328-94.9248 48.3584-44.7744 48.3584-103.87968-3.57888-154.02496-25.07264-25.07264-85.96992-93.1328-137.9072-128.95232-44.7744-30.44864-82.38592-17.90976-125.37344 10.74688-60.89216 41.1904-116.41344 80.59392-175.51872 132.5312z m146.86208 381.48608c10.74688 12.53888 10.74688 32.24064 0 44.7744l-51.9424 50.1504c-10.74688 12.53888-30.44864 12.53888-42.9824 0-12.53888-10.74688-12.53888-30.44864 0-42.9824l50.1504-51.9424c12.53888-10.74688 32.24064-10.74688 44.7744 0z m-60.89216-59.10528c12.53888 10.74688 12.53888 30.44864 0 42.9824l-51.9424 50.1504c-10.74688 12.53888-30.44864 12.53888-42.9824 0-12.53888-10.74688-12.53888-30.44864 0-42.9824l50.1504-50.1504c12.53376-12.53888 32.23552-12.53888 44.7744 0zM436.4288 603.61728c12.53888 10.74688 12.53888 30.44864 0 42.9824l-51.93728 51.9424c-10.74688 10.74688-30.44864 10.74688-42.9824 0-12.53888-12.53888-12.53888-32.24064 0-44.7744l50.1504-50.1504c12.52864-12.53376 32.2304-12.53376 44.76928 0z m-60.89728-60.89216c12.53888 10.74688 12.53888 30.44864 0 42.9824l-51.93728 51.9424c-10.74688 10.74688-30.44864 10.74688-42.9824 0-12.53888-12.53888-12.53888-32.24064 0-44.7744l50.1504-50.1504c12.53376-12.53888 32.23552-12.53888 44.76928 0zM153.4464 352.87552l121.78944-123.58144c32.24064-30.44864 75.22304-53.72928 112.83456-41.19552l12.53888 5.37088 93.1328 44.7744c-44.7744 35.81952-78.80704 57.31328-121.78944 94.9248 37.61152 100.29568 105.67168 102.08768 162.97984 59.10528l91.3408 91.3408 121.78944 123.58144c12.53888 12.53888 12.53888 32.24064 0 42.9824-10.74688 12.53888-30.44864 12.53888-42.9824 0l-112.83456-112.83456c-16.11776-16.11776-32.24064 1.792-17.90976 16.11776l112.83456 114.62656c12.53888 12.53888 12.53888 32.24064 0 42.9824-10.74688 12.53888-30.44864 12.53888-42.9824 0l-112.83456-111.04256c-17.90976-17.90976-28.65664 3.57888-16.11776 16.11776l112.83456 112.83456c10.74688 12.53888 10.74688 32.24064 0 42.9824-12.53888 12.53888-30.44864 12.53888-42.9824 1.792 10.74688-21.49376 8.95488-48.3584-8.95488-66.26816-12.53888-12.53888-28.65664-17.90976-44.7744-16.11776 0-16.11776-5.37088-34.02752-16.11776-44.7744-12.53888-12.53888-28.65664-17.90976-44.7744-16.11776 1.792-16.11776-5.37088-34.02752-16.11776-44.7744-12.53888-12.53888-28.65664-17.90976-44.7744-16.11776 1.792-16.11776-3.57888-32.24064-16.11776-44.7744-21.49376-21.49376-57.31328-21.49376-80.59392 0l-50.1504 50.1504-109.2608-111.03744c-30.44864-30.44864-19.70176-91.3408 0-111.04256l-0.00512-0.00512z m415.5136 438.79936c8.95488 12.53888 8.95488 30.44864-1.792 41.19552-12.53888 12.53888-30.44864 12.53888-41.19552 3.57888l42.98752-44.7744z" fill="#F9DB9D" /></svg>