<?xml version="1.0" standalone="no"?><!DOCTYPE svg PUBLIC "-//W3C//DTD SVG 1.1//EN" "http://www.w3.org/Graphics/SVG/1.1/DTD/svg11.dtd"><svg t="1607690774876" class="icon" viewBox="0 0 1024 1024" version="1.1" xmlns="http://www.w3.org/2000/svg" p-id="30348" xmlns:xlink="http://www.w3.org/1999/xlink" width="32" height="32"><defs><style type="text/css">@font-face { font-family: uc-nexus-iconfont; src: url("chrome-extension://pogijhnlcfmcppgimcaccdkmbedjkmhi/res/font_9qmmi8b8jsxxbt9.woff") format("woff"), url("chrome-extension://pogijhnlcfmcppgimcaccdkmbedjkmhi/res/font_9qmmi8b8jsxxbt9.ttf") format("truetype"); }
</style></defs><path d="M51.2 238.933333c0-37.717333 30.6176-68.266667 68.386133-68.266666h716.561067A68.386133 68.386133 0 0 1 904.533333 238.933333v546.133334c0 37.717333-30.6176 68.266667-68.386133 68.266666H119.586133A68.386133 68.386133 0 0 1 51.2 785.066667V238.933333z m68.266667 16.9472v512.238934a17.066667 17.066667 0 0 0 17.015466 16.9472h682.769067a16.9472 16.9472 0 0 0 17.015467-16.9472V255.880533a17.066667 17.066667 0 0 0-17.015467-16.9472H136.482133a16.9472 16.9472 0 0 0-17.015466 16.9472z m68.266666 85.3504c0-18.7904 15.240533-34.030933 34.048-34.030933h239.104c18.807467 0 34.048 15.274667 34.048 34.030933v205.0048A34.030933 34.030933 0 0 1 460.885333 580.266667h-239.104A34.065067 34.065067 0 0 1 187.733333 546.235733V341.230933zM563.2 375.466667c0-18.858667 15.394133-34.133333 34.286933-34.133334h136.226134a34.133333 34.133333 0 1 1 0 68.266667H597.504A34.133333 34.133333 0 0 1 563.2 375.466667z m0 136.533333c0-18.858667 15.394133-34.133333 34.286933-34.133333h136.226134a34.133333 34.133333 0 1 1 0 68.266666H597.504A34.133333 34.133333 0 0 1 563.2 512zM187.733333 682.666667c0-18.858667 15.223467-34.133333 34.133334-34.133334h512c18.858667 0 34.133333 15.1552 34.133333 34.133334 0 18.858667-15.223467 34.133333-34.133333 34.133333H221.866667c-18.858667 0-34.133333-15.1552-34.133334-34.133333z" fill="#d4237a" p-id="30349"></path></svg>