<?xml version="1.0" standalone="no"?><!DOCTYPE svg PUBLIC "-//W3C//DTD SVG 1.1//EN" "http://www.w3.org/Graphics/SVG/1.1/DTD/svg11.dtd"><svg t="1607690227116" class="icon" viewBox="0 0 1024 1024" version="1.1" xmlns="http://www.w3.org/2000/svg" p-id="24118" xmlns:xlink="http://www.w3.org/1999/xlink" width="32" height="32"><defs><style type="text/css">@font-face { font-family: uc-nexus-iconfont; src: url("chrome-extension://pogijhnlcfmcppgimcaccdkmbedjkmhi/res/font_9qmmi8b8jsxxbt9.woff") format("woff"), url("chrome-extension://pogijhnlcfmcppgimcaccdkmbedjkmhi/res/font_9qmmi8b8jsxxbt9.ttf") format("truetype"); }
</style></defs><path d="M1010.53 955.45H13.68c-7.44 0-13.47-6.01-13.47-13.44v-26.94c0-7.46 6.03-13.47 13.47-13.47h67.35V120.26c0-29.74 24.11-53.88 53.88-53.88H646.8c29.74 0 53.88 24.14 53.88 53.88v134.71h188.59c29.74 0 53.88 24.14 53.88 53.88V901.6h67.35c7.44 0 13.47 6.01 13.47 13.47v26.94c0.03 7.43-6 13.44-13.44 13.44zM296.57 901.6h188.59V632.15H296.57V901.6z m350.25-0.03V120.26h-511.9V901.6h107.77V632.18c0-29.77 24.11-53.88 53.88-53.88h188.59c29.74 0 53.88 24.11 53.88 53.88V901.6h107.77v-0.03z m242.47-592.72H700.7V901.6h188.59V308.85zM215.75 430.09v-26.94c0-7.44 6.03-13.47 13.47-13.47h323.3c7.44 0 13.47 6.03 13.47 13.47v26.94c0 7.44-6.03 13.47-13.47 13.47h-323.3c-7.44 0-13.47-6.04-13.47-13.47z m336.77-148.18h-323.3c-7.44 0-13.47-6.01-13.47-13.44v-26.94c0-7.46 6.03-13.47 13.47-13.47h323.3c7.44 0 13.47 6.01 13.47 13.47v26.94c0 7.43-6.03 13.44-13.47 13.44z" fill="#d4237a" p-id="24119"></path></svg>