<?xml version="1.0" standalone="no"?><!DOCTYPE svg PUBLIC "-//W3C//DTD SVG 1.1//EN" "http://www.w3.org/Graphics/SVG/1.1/DTD/svg11.dtd"><svg t="1607693600220" class="icon" viewBox="0 0 1024 1024" version="1.1" xmlns="http://www.w3.org/2000/svg" p-id="11161" xmlns:xlink="http://www.w3.org/1999/xlink" width="32" height="32"><defs><style type="text/css">@font-face { font-family: uc-nexus-iconfont; src: url("chrome-extension://pogijhnlcfmcppgimcaccdkmbedjkmhi/res/font_9qmmi8b8jsxxbt9.woff") format("woff"), url("chrome-extension://pogijhnlcfmcppgimcaccdkmbedjkmhi/res/font_9qmmi8b8jsxxbt9.ttf") format("truetype"); }
</style></defs><path d="M988.736 855.850667c-16.341333-40.042667-70.442667-172.245333-102.528-223.082667-43.392-69.290667-96.213333-144.277333-115.093333-196.394667-7.552-20.970667-18.88-45.76-27.690667-65.472l4.416-1.28c40.256-13.333333 61.013333-57.813333 47.168-97.877333l-70.442667-197.013333C712.618667 41.664 681.792 21.333333 649.706667 21.333333c-9.429333 0-18.858667 1.92-28.309334 5.077334l-116.352 45.141333a303.658667 303.658667 0 0 1-97.493333 20.330667l-323.328 11.434666C52.778667 104.597333 21.333333 123.029333 21.333333 164.970667c0 62.933333 11.306667 89.6 27.050667 151.253333 15.722667 61.653333 35.221333 130.944 105.045333 262.506667l48.426667 73.088c16.362667 23.530667 31.445333 32.426667 45.909333 32.426666 14.485333 0 28.309333-8.896 43.413334-20.970666l243.413333-202.112c15.104-12.714667 27.050667-21.610667 40.256-28.608 16.981333 49.578667 51.584 138.56 90.581333 190.037333 48.426667 62.933333 130.837333 245.973333 152.213334 313.344 15.104 47.658667 49.706667 66.730667 85.546666 66.730667 16.981333 0 33.984-4.458667 49.706667-12.074667 62.890667-32.426667 55.338667-87.701333 35.84-134.741333z m-480.554667-427.093334l-243.413333 201.450667c-1.28 1.28-2.517333 1.92-3.776 3.2-7.552 5.717333-18.24 4.437333-24.533333-3.84-0.64-0.64-1.28-1.258667-1.28-1.898667l-46.528-70.549333c-65.429333-122.666667-83.669333-186.218667-100.010667-251.050667-3.157333-12.714667-6.293333-23.509333-8.810667-34.325333-10.688-38.762667-16.981333-62.293333-16.981333-107.413333 0-5.717333 0-18.432 22.634667-19.690667l323.306666-11.434667c37.76-1.28 75.498667-8.917333 110.72-22.890666l116.352-45.12a36.608 36.608 0 0 1 23.274667-1.28c12.586667 3.2 22.016 13.354667 26.432 25.429333l69.184 194.474667c3.136 8.277333 3.136 17.173333 0 24.789333-3.776 9.536-11.306667 17.173333-20.757333 20.352l-124.544 43.221333c-47.168 16.512-66.666667 28.586667-101.269334 56.554667z m425.834667 524.330667a68.949333 68.949333 0 0 1-30.826667 7.637333c-22.634667 0-38.357333-12.714667-46.549333-38.144-21.376-67.370667-105.024-255.509333-159.146667-326.058666-35.84-47.018667-68.544-132.821333-84.906666-179.84 9.450667-4.48 82.410667-28.629333 91.221333-31.146667 8.810667 19.050667 20.757333 44.48 27.669333 64.810667 16.362667 45.76 52.842667 101.696 90.581334 160.170666 9.429333 14.613333 18.858667 29.866667 28.309333 43.861334 23.893333 38.122667 67.285333 136.64 99.370667 216.725333 23.274667 56.554667 5.674667 71.189333-15.722667 81.984zM249.024 363.264a946.56 946.56 0 0 1-28.288-120.746667c-1.898667-12.074667-15.104-19.072-26.432-15.253333-10.069333 3.178667-15.082667 13.333333-13.205333 24.149333 5.653333 34.965333 22.016 92.16 30.826666 123.946667 10.069333 35.584 33.962667 88.96 54.08 123.306667 5.034667 8.874667 15.104 13.973333 25.173334 10.794666 11.306667-3.818667 17.6-17.792 11.946666-28.586666-20.117333-35.626667-36.48-61.653333-54.101333-117.610667z" fill="#d4237a" p-id="11162"></path></svg>