<?xml version="1.0" standalone="no"?><!DOCTYPE svg PUBLIC "-//W3C//DTD SVG 1.1//EN" "http://www.w3.org/Graphics/SVG/1.1/DTD/svg11.dtd"><svg t="1607691637583" class="icon" viewBox="0 0 1024 1024" version="1.1" xmlns="http://www.w3.org/2000/svg" p-id="5509" xmlns:xlink="http://www.w3.org/1999/xlink" width="32" height="32"><defs><style type="text/css">@font-face { font-family: uc-nexus-iconfont; src: url("chrome-extension://pogijhnlcfmcppgimcaccdkmbedjkmhi/res/font_9qmmi8b8jsxxbt9.woff") format("woff"), url("chrome-extension://pogijhnlcfmcppgimcaccdkmbedjkmhi/res/font_9qmmi8b8jsxxbt9.ttf") format("truetype"); }
</style></defs><path d="M633.9584 204.8a51.2 51.2 0 0 1 45.7984 28.3136L716.8 307.2h102.4a51.2 51.2 0 0 1 51.2 51.2v409.6a51.2 51.2 0 0 1-51.2 51.2H204.8a51.2 51.2 0 0 1-51.2-51.2V358.4a51.2 51.2 0 0 1 51.2-51.2h102.4l37.0432-74.0864A51.2 51.2 0 0 1 390.0672 204.8h243.8912zM640 256H384l-37.0432 74.0864a51.2 51.2 0 0 1-41.6768 28.16l-4.1216 0.1536H204.8v409.6h614.4V358.4h-96.3584a51.2 51.2 0 0 1-43.776-24.6784l-2.0224-3.6352L640 256z m-128 128a166.4 166.4 0 1 1 0 332.8 166.4 166.4 0 0 1 0-332.8z m0 47.5392a118.8608 118.8608 0 1 0 0 237.7216 118.8608 118.8608 0 0 0 0-237.7216zM761.6 384a32 32 0 1 1 0 64 32 32 0 0 1 0-64z" p-id="5510" fill="#d4237a"></path></svg>