<?xml version="1.0" standalone="no"?><!DOCTYPE svg PUBLIC "-//W3C//DTD SVG 1.1//EN" "http://www.w3.org/Graphics/SVG/1.1/DTD/svg11.dtd"><svg t="1607690562862" class="icon" viewBox="0 0 1084 1024" version="1.1" xmlns="http://www.w3.org/2000/svg" p-id="25433" xmlns:xlink="http://www.w3.org/1999/xlink" width="33.875" height="32"><defs><style type="text/css">@font-face { font-family: uc-nexus-iconfont; src: url("chrome-extension://pogijhnlcfmcppgimcaccdkmbedjkmhi/res/font_9qmmi8b8jsxxbt9.woff") format("woff"), url("chrome-extension://pogijhnlcfmcppgimcaccdkmbedjkmhi/res/font_9qmmi8b8jsxxbt9.ttf") format("truetype"); }
</style></defs><path d="M1020.20339 903.59322H303.728814c0-32.542373-26.576271-59.661017-59.661017-59.661017s-59.661017 26.576271-59.661017 59.661017H65.084746c-32.542373 0-59.661017-26.576271-59.661017-59.661017V187.118644c0-32.542373 26.576271-59.661017 59.661017-59.661017h119.322034c0 32.542373 26.576271 59.661017 59.661017 59.661017 32.542373 0 59.661017-26.576271 59.661017-59.661017h715.932203c32.542373 0 59.661017 26.576271 59.661017 59.661017v656.813559c0.542373 33.084746-26.033898 59.661017-59.118644 59.661017z m0-716.474576H347.118644c-20.610169 35.254237-59.118644 59.661017-103.050847 59.661017s-82.440678-23.864407-103.050848-59.661017H64.542373v656.813559H141.016949c20.610169-35.254237 59.118644-59.661017 103.050848-59.661017s82.440678 23.864407 103.050847 59.661017h673.627119V187.118644zM497.898305 395.932203h388.338983c8.135593 0 14.644068 6.508475 14.644068 14.644068v29.830509c0 8.135593-6.508475 14.644068-14.644068 14.644067H497.898305c-8.135593 0-14.644068-6.508475-14.644068-14.644067v-29.830509c0-8.135593 6.508475-14.644068 14.644068-14.644068z m0 179.525424h388.338983c8.135593 0 14.644068 6.508475 14.644068 14.644068v29.830508c0 8.135593-6.508475 14.644068-14.644068 14.644068H497.898305c-8.135593 0-14.644068-6.508475-14.644068-14.644068v-29.830508c0-8.135593 6.508475-14.644068 14.644068-14.644068z m-238.644068 148.61017h-29.830508c-8.135593 0-14.644068-6.508475-14.644068-14.644068v-149.694915c0-8.135593 6.508475-14.644068 14.644068-14.644068h29.830508c8.135593 0 14.644068 6.508475 14.644068 14.644068v149.694915c0 8.135593-6.508475 14.644068-14.644068 14.644068z m0-238.644068h-29.830508c-8.135593 0-14.644068-6.508475-14.644068-14.644068V321.084746c0-8.135593 6.508475-14.644068 14.644068-14.644068h29.830508c8.135593 0 14.644068 6.508475 14.644068 14.644068v149.694915c0 8.135593-6.508475 14.644068-14.644068 14.644068z" p-id="25434" fill="#d4237a"></path><path d="M1020.20339 909.016949H298.305085v-5.423729c0-29.830508-24.40678-54.237288-54.237288-54.237288s-54.237288 24.40678-54.237289 54.237288v5.423729H65.084746c-35.79661 0-65.084746-29.288136-65.084746-65.084746V187.118644c0-35.79661 29.288136-65.084746 65.084746-65.084746h124.745762v5.423729c0 29.830508 24.40678 54.237288 54.237289 54.237288s54.237288-24.40678 54.237288-54.237288v-5.423729h721.355932c35.79661 0 65.084746 29.288136 65.084746 65.084746v656.813559c0.542373 17.355932-6.508475 33.627119-18.440678 46.101695-12.474576 11.932203-28.745763 18.983051-46.101695 18.983051z m-711.050848-10.847457h711.593221c14.644068 0 28.20339-5.423729 37.966101-15.728814 10.305085-10.305085 15.728814-23.864407 15.186441-38.508475V187.118644c0-29.830508-24.40678-54.237288-54.237288-54.237288H308.610169c-2.711864 33.084746-30.915254 59.661017-64.542372 59.661017-34.169492 0-61.830508-26.033898-64.542373-59.661017H65.084746c-29.830508 0-54.237288 24.40678-54.237288 54.237288v657.355932c0 29.830508 24.40678 54.237288 54.237288 54.237288h114.983051c2.711864-33.084746 30.915254-59.661017 64.542372-59.661017 33.627119-0.542373 61.830508 26.033898 64.542373 59.118645z m716.474577-49.355933H343.864407l-1.627119-2.711864c-20.610169-35.79661-57.491525-56.949153-98.169491-56.949153s-77.559322 21.152542-98.169492 56.949153l-1.627119 2.711864H59.118644v-667.118644h85.152542l1.627119 2.711865c20.610169 35.79661 57.491525 56.949153 98.169492 56.949152 40.677966 0 77.559322-21.152542 98.169491-56.949152l1.627119-2.711865h682.305085v667.118644z m-675.796611-10.847457h664.949153v-645.423729H349.830508c-22.779661 37.423729-62.372881 59.661017-106.305084 59.661017s-82.983051-22.237288-106.305085-59.661017H69.966102v645.966102h67.79661c22.779661-37.423729 62.372881-59.661017 106.305085-59.661017 43.389831 0 82.983051 22.237288 105.762711 59.118644z m-90.576271-108.474577h-29.830508c-11.389831 0-20.067797-9.220339-20.067797-20.067796v-149.694915c0-11.389831 9.220339-20.067797 20.067797-20.067797h29.830508c11.389831 0 20.067797 9.220339 20.067797 20.067797v149.694915c0 10.847458-9.220339 20.067797-20.067797 20.067796z m-30.372881-178.98305c-5.423729 0-9.220339 4.338983-9.220339 9.220339v149.694915c0 5.423729 4.338983 9.220339 9.220339 9.220339h29.830508c5.423729 0 9.220339-4.338983 9.220339-9.220339v-149.694915c0-5.423729-4.338983-9.220339-9.220339-9.220339h-29.830508zM886.237288 640H497.898305c-11.389831 0-20.067797-9.220339-20.067797-20.067797v-29.830508c0-11.389831 9.220339-20.067797 20.067797-20.067797h388.338983c11.389831 0 20.067797 9.220339 20.067797 20.067797v29.830508c0 11.389831-9.220339 20.067797-20.067797 20.067797z m-388.338983-59.118644c-5.423729 0-9.220339 4.338983-9.220339 9.220339v29.830508c0 5.423729 4.338983 9.220339 9.220339 9.220339h388.338983c5.423729 0 9.220339-4.338983 9.220339-9.220339v-29.830508c0-5.423729-4.338983-9.220339-9.220339-9.220339H497.898305z m-238.644068-90.033898h-29.830508c-11.389831 0-20.067797-9.220339-20.067797-20.067797V321.084746c0-11.389831 9.220339-20.067797 20.067797-20.067797h29.830508c11.389831 0 20.067797 9.220339 20.067797 20.067797v149.694915c0 10.847458-9.220339 20.067797-20.067797 20.067797z m-30.372881-178.983051c-5.423729 0-9.220339 4.338983-9.220339 9.220339v149.694915c0 5.423729 4.338983 9.220339 9.220339 9.220339h29.830508c5.423729 0 9.220339-4.338983 9.220339-9.220339V321.084746c0-5.423729-4.338983-9.220339-9.220339-9.220339h-29.830508z m657.355932 148.610169H497.898305c-11.389831 0-20.067797-9.220339-20.067797-20.067796v-29.830509c0-11.389831 9.220339-20.067797 20.067797-20.067796h388.338983c11.389831 0 20.067797 9.220339 20.067797 20.067796v29.830509c0 11.389831-9.220339 20.067797-20.067797 20.067796zM497.898305 401.355932c-5.423729 0-9.220339 4.338983-9.220339 9.220339v29.830509c0 5.423729 4.338983 9.220339 9.220339 9.220339h388.338983c5.423729 0 9.220339-4.338983 9.220339-9.220339v-29.830509c0-5.423729-4.338983-9.220339-9.220339-9.220339H497.898305z" p-id="25435" fill="#d4237a"></path></svg>