<?xml version="1.0" standalone="no"?><!DOCTYPE svg PUBLIC "-//W3C//DTD SVG 1.1//EN" "http://www.w3.org/Graphics/SVG/1.1/DTD/svg11.dtd"><svg t="1607690690826" class="icon" viewBox="0 0 1024 1024" version="1.1" xmlns="http://www.w3.org/2000/svg" p-id="27136" xmlns:xlink="http://www.w3.org/1999/xlink" width="32" height="32"><defs><style type="text/css">@font-face { font-family: uc-nexus-iconfont; src: url("chrome-extension://pogijhnlcfmcppgimcaccdkmbedjkmhi/res/font_9qmmi8b8jsxxbt9.woff") format("woff"), url("chrome-extension://pogijhnlcfmcppgimcaccdkmbedjkmhi/res/font_9qmmi8b8jsxxbt9.ttf") format("truetype"); }
</style></defs><path d="M924.184059 360.644702c-14.79399-69.282286-32.886615-123.848427-53.831489-162.161005-26.581259-48.660951-59.022704-73.337467-96.387775-73.337466-35.047999 0-65.950811 21.456941-91.999325 63.802805H281.510911l-9.669672 12.677609c-0.891556 1.146981-89.391555 116.105391-189.165539 167.451957-5.992764 3.096728-10.516224 6.171562-14.236919 9.691565-9.714675 9.190445-13.747962 21.981171-10.806923 34.201447 2.47276 10.34959 10.449327 23.707116 34.290238 28.585739 7.018114 1.43768 15.975028 2.43992 28.22936 3.152678 20.676069 1.215095 48.394579 1.459573 80.523432 1.749055 15.953134 0.144741 33.266104 0.300429 51.134927 0.600858v260.375678c-41.353355 41.698787-64.080124 98.825262-64.080125 161.380133 0 17.703405 14.460721 32.063172 32.262648 32.063172 17.825037 0 32.262647-14.360983 32.262647-32.063172 0-94.492763 67.845823-163.073238 161.270665-163.073238 88.877055 0 156.878566 63.83443 162.916333 150.45158v5.501374c0 1.774598 0.135011 3.489596 0.425709 5.181484 0 0.645861 0.020677 1.292939 0.020677 1.9388 0 17.703405 14.438827 32.063172 32.263864 32.063172 17.801927 0 32.261431-14.360983 32.26143-32.063172 0-4.879839-0.156904-9.725622-0.443953-14.526401 0.400166-187.516222 15.885021-358.846994 43.736108-483.128428 32.175073-143.589153 71.230816-181.889568 89.258977-181.889568 17.713136 0 55.991657 38.891542 87.096376 184.67492 26.913312 126.176446 41.732844 301.60497 41.732844 493.95846 0 17.713136 14.436394 32.06074 32.260214 32.06074s32.262647-14.34882 32.262647-32.06074c0.002433-196.684774-15.325518-376.838665-43.132817-507.260036z m-302.441792-3.420267c-21.500728 95.885439-35.872658 218.163608-41.978539 353.710514a212.243823 212.243823 0 0 0-6.638625-6.639842c-42.291131-40.407065-98.97122-62.665555-159.597021-62.665554-34.380244 0-67.399437 7.198128-97.19054 20.834189V384.496559l-31.371091-0.869662c-29.343501-0.801549-58.241832-1.05819-83.710167-1.291723-6.593621-0.05595-13.457264-0.110684-20.364694-0.189744 62.097538-47.179484 111.695048-104.073644 132.21543-129.072482h338.582038c-11.03194 29.64393-21.056775 64.44745-29.946791 104.151487z m-109.155391 26.102033H379.636795v129.352233H512.586876V383.326468z" fill="#d4237a" p-id="27137"></path></svg>