<?xml version="1.0" standalone="no"?><!DOCTYPE svg PUBLIC "-//W3C//DTD SVG 1.1//EN" "http://www.w3.org/Graphics/SVG/1.1/DTD/svg11.dtd"><svg t="1607691609535" class="icon" viewBox="0 0 1024 1024" version="1.1" xmlns="http://www.w3.org/2000/svg" p-id="3434" xmlns:xlink="http://www.w3.org/1999/xlink" width="32" height="32"><defs><style type="text/css">@font-face { font-family: uc-nexus-iconfont; src: url("chrome-extension://pogijhnlcfmcppgimcaccdkmbedjkmhi/res/font_9qmmi8b8jsxxbt9.woff") format("woff"), url("chrome-extension://pogijhnlcfmcppgimcaccdkmbedjkmhi/res/font_9qmmi8b8jsxxbt9.ttf") format("truetype"); }
</style></defs><path d="M445.632 875.008c-15.872 0-33.792-4.928-54.72-15.04-19.008-9.216-39.808-21.632-61.888-36.864-21.568-14.784-44.672-32.704-68.672-53.12-23.68-20.288-47.04-41.6-70.144-64.128-14.976-14.464-31.36-31.296-48.832-50.56-17.984-19.84-35.008-41.728-50.688-65.152-16.064-23.936-30.08-50.176-41.536-78.016C36.992 482.752 30.208 451.136 28.928 418.048c-1.28-32.64 2.304-63.808 10.496-92.608 8.32-29.184 21.12-55.744 37.888-79.04 16.896-23.424 38.016-43.392 62.72-59.392 24.96-16 53.12-27.264 83.776-33.664 17.216-3.584 34.624-4.096 51.84-1.536 15.296 2.176 30.848 6.144 46.144 11.712 15.232 5.632 29.696 12.736 43.2 21.184 12.544 7.68 24.576 15.872 36.032 24.256 17.536 13.184 34.688 28.096 51.2 44.672 12.544-13.696 25.6-26.624 38.976-38.592 20.416-17.28 42.88-32.448 67.456-45.76 28.096-15.296 57.984-22.08 89.024-19.904 40.128 3.2 74.24 13.12 101.76 29.376 27.52 16.192 49.856 37.248 66.368 62.528 16.064 24.576 27.2 52.672 33.088 83.52 5.568 29.312 7.36 59.776 5.568 90.56-1.792 30.528-7.296 60.288-16.256 88.64-8.96 27.776-19.968 53.824-32.896 77.568-12.864 23.744-27.392 46.016-43.136 66.176-15.36 19.904-30.784 37.888-46.272 53.888-23.424 24-48.064 46.656-73.472 67.392-25.344 20.608-49.984 38.656-73.216 53.76-24.128 15.552-45.376 27.52-65.024 36.48C481.024 870.016 463.168 874.944 448 874.944l-2.368-31.936 0.576-32c3.136-0.064 11.008-0.576 31.168-9.792 16.576-7.616 35.776-18.432 57.024-32.128 21.248-13.76 43.968-30.464 67.52-49.6 23.488-19.2 46.4-40.192 68.032-62.336 13.76-14.336 27.712-30.592 41.6-48.576 13.632-17.472 26.176-36.8 37.44-57.472 11.008-20.288 20.48-42.688 28.16-66.496 7.296-23.168 11.84-47.808 13.312-73.024 1.472-25.472 0-50.688-4.544-74.752-4.288-22.592-12.288-42.88-23.744-60.48C750.912 259.2 736.128 245.312 716.8 233.92c-19.136-11.328-44.032-18.24-73.984-20.672L636.288 213.056c-16.256 0-31.68 4.096-47.168 12.544C568.32 236.864 549.504 249.536 533.056 263.424c-18.88 16.832-37.632 36.672-55.04 58.24L454.08 351.424l-25.088-28.8C407.808 298.432 385.536 277.44 362.752 260.352 352.896 253.056 342.336 245.952 331.264 239.104 321.28 232.896 310.656 227.712 299.648 223.616 288.64 219.648 277.44 216.768 266.432 215.168 256.32 213.696 246.72 214.016 236.8 216.064 213.824 220.864 192.96 229.184 174.656 240.896c-17.92 11.584-33.28 26.112-45.504 43.008-12.416 17.28-21.952 37.12-28.224 59.136-6.4 22.272-9.088 46.656-8.128 72.576C93.888 441.408 98.88 465.024 108.224 487.68c9.856 23.872 21.824 46.336 35.52 66.816C157.76 575.296 172.864 594.752 188.8 612.224c16.384 17.984 31.744 33.856 45.952 47.552 22.208 21.632 44.544 42.048 67.2 61.44 22.272 19.008 43.584 35.52 63.36 49.152 19.456 13.44 37.44 24.192 53.44 31.936 16.192 7.808 24.192 8.704 26.88 8.704L445.632 875.008z" p-id="3435" fill="#d4237a"></path><path d="M911.296 560.32c-7.424 23.232-16.832 45.376-27.776 65.536-11.328 20.736-23.808 40.064-37.376 57.408-13.952 17.984-27.904 34.24-41.664 48.576-21.76 22.336-44.608 43.264-68.032 62.336-23.296 19.072-45.952 35.776-67.456 49.6-3.328 2.112-6.272 3.776-9.472 5.76l53.632 41.472c20.672-13.888 41.984-29.44 63.744-47.232 25.344-20.544 49.984-43.2 73.6-67.392 15.36-16 30.784-33.984 46.272-53.888 15.616-20.032 30.144-42.368 43.008-66.112 11.648-21.248 20.992-44.736 29.248-68.928L911.296 560.32z" p-id="3436" fill="#d4237a"></path><path d="M229.056 561.344C148.928 478.912 148.032 384 148.032 384l64 0-32 0 32-3.2c0 2.944 1.6 72.832 62.912 135.872L229.056 561.344z" p-id="3437" fill="#d4237a"></path></svg>