<?xml version="1.0" standalone="no"?><!DOCTYPE svg PUBLIC "-//W3C//DTD SVG 1.1//EN" "http://www.w3.org/Graphics/SVG/1.1/DTD/svg11.dtd"><svg class="icon" width="32px" height="32.00px" viewBox="0 0 1024 1024" version="1.1" xmlns="http://www.w3.org/2000/svg"><path fill="#d42379" d="M936 481.493c-8-102-51.603-197.988-124.511-270.359-75.23-74.641-175.13-118.112-280.919-122.471-2.123-0.107-4.378-0.216-6.517-0.366l-0.57-0.026c-3.453-0.231-7.046-0.466-10.776-0.466-3.734 0-7.31 0.24-10.756 0.471l-0.604 0.041c-2.1 0.149-4.266 0.275-6.318 0.38-109.592 4.514-211.878 50.516-288.013 129.529C130.583 297.491 88.49 401.823 88.49 512.002c0 110.18 42.092 214.512 118.521 293.777 76.136 79.014 178.413 125.014 287.999 129.529 2.062 0.082 4.172 0.227 6.352 0.381l0.541 0.035c3.458 0.232 7.034 0.471 10.781 0.471 3.744 0 7.326-0.24 10.791-0.475l0.502-0.033c2.283-0.16 4.336-0.299 6.344-0.379 105.848-4.361 205.94-47.805 281.171-122.447C884.397 740.49 928 644.492 936 542.492v-60.999zM634.424 542c-6.268 118-49.346 232.496-121.762 324.445C440.251 774.498 397.188 660 390.941 542h243.483zM437.917 866.926C280.836 834.023 164.193 702 150.852 542h179.25c5.58 117 42.757 228.92 107.815 324.926zM390.941 481c6.247-118 49.311-232.496 121.721-324.445C585.076 248.484 628.154 363 634.424 481H390.941z m-240.089 0c13.341-160 129.977-292.021 287.045-324.925C372.853 252.092 335.681 364 330.103 481H150.852z m723.64 61c-13.361 160-129.996 292.025-287.045 324.926C652.506 770.891 689.686 659 695.264 542h179.228z m0-61H695.264c-5.578-117-42.758-228.89-107.816-324.925C744.496 188.977 861.131 321 874.492 481z" /></svg>