<?xml version="1.0" standalone="no"?><!DOCTYPE svg PUBLIC "-//W3C//DTD SVG 1.1//EN" "http://www.w3.org/Graphics/SVG/1.1/DTD/svg11.dtd"><svg class="icon" width="32px" height="32.00px" viewBox="0 0 1024 1024" version="1.1" xmlns="http://www.w3.org/2000/svg"><path d="M1005.056 56.832v420.352l-116.736 201.728-116.224-201.728H351.744c-20.992 0-37.888-16.896-37.888-37.888V56.832c0-20.992 16.896-37.888 37.888-37.888H967.68c20.48 0 37.376 16.896 37.376 37.888z" fill="#F4EA2A" /><path d="M888.832 697.344c-6.656 0-12.8-3.584-16.384-9.728l-111.104-192h-409.6c-31.232 0-56.832-25.6-56.832-56.832V56.832C294.912 25.6 320.512 0 351.744 0H967.68c30.72 0 56.32 25.6 56.32 56.832v420.352c0 3.072-1.024 6.656-2.56 9.728l-116.224 201.728c-3.584 5.12-9.728 8.704-16.384 8.704zM351.744 37.888c-10.24 0-18.944 8.704-18.944 18.944v382.464c0 10.24 8.704 18.944 18.944 18.944h420.864c6.656 0 12.8 3.584 16.384 9.728l99.84 173.568 97.792-168.96V56.832c0-10.24-8.704-18.944-18.944-18.944H351.744z" fill="#403F3F" /><path d="M778.24 186.368H411.136c-10.24 0-18.944-8.704-18.944-18.944s8.704-18.944 18.944-18.944H778.24c10.24 0 18.944 8.704 18.944 18.944s-8.704 18.944-18.944 18.944z m28.16 133.12v445.952c0 20.992-16.896 37.888-37.888 37.888h-517.12l-116.736 201.728-115.712-201.728V319.488c0-20.992 16.896-37.888 37.888-37.888h711.68c20.992 0 37.888 16.896 37.888 37.888z" fill="#FFFFFF" /><path d="M151.04 1014.784c-6.656 0-12.8-3.584-16.384-9.728L18.432 803.328c-1.536-3.072-2.56-6.144-2.56-9.728V310.272c0-31.232 25.6-56.832 56.832-56.832h711.68c31.232 0 56.832 25.6 56.832 56.832v445.952c0 31.232-25.6 56.832-56.832 56.832H278.528l-111.104 192.512c-3.072 5.632-9.728 9.216-16.384 9.216z m-97.28-225.792l97.28 168.96 100.352-173.568c3.584-5.632 9.728-9.728 16.384-9.728h516.608c10.24 0 18.944-8.704 18.944-18.944v-445.44c0-10.24-8.704-18.944-18.944-18.944h-711.68c-10.24 0-18.944 8.704-18.944 18.944v478.72z" fill="#403F3F" /><path d="M600.576 476.672c0 124.928-172.544 226.304-172.544 226.304S256 602.112 256 476.672V471.04c0-4.608 0.512-8.704 0.512-13.312 5.12-42.496 41.472-75.776 85.504-75.776 47.616 0 86.016 38.4 86.016 86.016 0-47.616 38.4-86.016 86.016-86.016 43.52 0 79.872 32.768 85.504 74.752 0.512 5.12 0.512 10.752 0.512 15.872 0.512 1.536 0.512 3.072 0.512 4.096z" fill="#F4EA2A" /><path d="M428.544 722.432c-3.072 0-6.656-1.024-9.728-2.56-7.168-4.608-181.76-108.544-181.76-242.688V471.04c0-4.608 0.512-9.728 0.512-14.336 6.144-53.76 51.2-93.696 104.448-93.696 35.84 0 67.072 17.92 86.016 45.056 18.944-27.136 50.688-45.056 86.016-45.056 52.736 0 97.28 39.424 104.448 91.136 0.512 6.656 0.512 12.288 1.024 18.432v4.608c0 134.144-174.08 238.592-181.76 242.688-2.56 1.536-6.144 2.56-9.216 2.56zM342.528 400.896c-34.304 0-62.976 25.6-66.56 59.392 0 3.072-0.512 7.168-0.512 11.264v5.632c0 96.768 118.272 181.248 153.6 204.288 34.816-23.04 153.6-107.52 153.6-204.288v-3.584c0-5.12-0.512-10.24-0.512-15.36-4.096-32.256-32.768-57.344-66.56-57.344-36.864 0-67.072 30.208-67.072 67.072 0 10.24-8.704 18.944-18.944 18.944S409.6 478.208 409.6 467.968c0-37.376-30.208-67.072-67.072-67.072z" fill="#403F3F" /></svg>