<?xml version="1.0" standalone="no"?><!DOCTYPE svg PUBLIC "-//W3C//DTD SVG 1.1//EN" "http://www.w3.org/Graphics/SVG/1.1/DTD/svg11.dtd"><svg class="icon" width="64px" height="64.00px" viewBox="0 0 1024 1024" version="1.1" xmlns="http://www.w3.org/2000/svg"><path fill="#2c2c2c" d="M640 320h224c17.67936 0 32-14.32576 32-32S881.67936 256 864 256H640c-17.67936 0-32 14.32576-32 32s14.32064 32 32 32zM640 448h224c17.67936 0 32-14.32576 32-32S881.67936 384 864 384H640c-17.67936 0-32 14.32576-32 32s14.32064 32 32 32z"  /><path fill="#2c2c2c" d="M0 0v896c0 70.62016 57.44128 128 128.03072 128H896c70.62016 0 128-57.37984 128-128V0H0z m959.96928 895.96928c0 35.29216-28.672 64-64 64H128c-35.34336-0.02048-63.99488-28.66176-64.03072-64v-832h896v832z"  /><path fill="#2c2c2c" d="M157.97248 831.96928c0.67584 0.02048 1.35168 0.02048 2.02752 0h704a31.9488 31.9488 0 0 0 31.96928-31.90784v-0.06144a31.9488 31.9488 0 0 0-31.96928-32H160a32 32 0 0 0-2.02752 63.96928zM160 576h704c17.67936 0 32-14.32064 32-32s-14.32064-32-32-32H160c-17.67424 0-32 14.32064-32 32s14.32576 32 32 32zM640 191.96928h224a32 32 0 1 0 0-64H640a32 32 0 1 0 0 64zM160 704h704c17.67936 0 32-14.32064 32-32s-14.32064-32-32-32H160c-17.67424 0-32 14.32064-32 32s14.32576 32 32 32zM192 448h288c35.328 0 64-28.70272 64-64V191.96928c0-35.3024-28.672-64-64-64H192c-35.328 0-64 28.6976-64 64V384c0 35.29728 28.672 64 64 64z m0-256.03072h288L479.93344 384H192V191.96928z"  /></svg>