<?xml version="1.0" standalone="no"?><!DOCTYPE svg PUBLIC "-//W3C//DTD SVG 1.1//EN" "http://www.w3.org/Graphics/SVG/1.1/DTD/svg11.dtd"><svg class="icon" width="64px" height="61.71px" viewBox="0 0 1062 1024" version="1.1" xmlns="http://www.w3.org/2000/svg"><path fill="#2c2c2c" d="M1018.320096 505.308376c37.76024-36.911695 51.761227-81.248156 38.608785-121.766166s-50.48841-67.883577-102.67391-75.520479l-201.741506-29.486929a52.397636 52.397636 0 0 1-27.365567-20.152937l-91.00642-183.70993C610.806498 27.153431 572.834122 0 530.406887 0s-80.187475 27.153431-103.522455 74.671935l-90.157876 183.70993a52.609772 52.609772 0 0 1-27.365567 20.152937l-201.741506 29.486929c-52.1855 7.636902-89.521467 35.002469-102.67391 75.520479s0 84.854471 38.608785 121.766166l145.94969 142.979784a53.458317 53.458317 0 0 1 10.606809 32.881108L165.53266 883.12291a123.887528 123.887528 0 0 0 22.910707 106.068089 98.855459 98.855459 0 0 0 77.005433 34.790333 144.88901 144.88901 0 0 0 67.671441-18.455847l180.527887-95.461281a52.1855 52.1855 0 0 1 33.517517 0l180.527887 95.461281a144.88901 144.88901 0 0 0 67.459305 18.455847 98.855459 98.855459 0 0 0 77.217569-34.790333 123.887528 123.887528 0 0 0 22.910707-106.068089l-34.366061-201.953642a53.458317 53.458317 0 0 1 10.606809-32.881108z m-220.197353 186.467701l34.366061 201.953642c7.000494 42.427236-8.697583 65.974351-37.335967 65.974351a82.945246 82.945246 0 0 1-37.76024-11.031081l-180.527887-95.46128a111.58363 111.58363 0 0 0-93.127783 0l-180.527887 95.46128a82.945246 82.945246 0 0 1-37.76024 11.031081c-28.638384 0-44.336461-24.39566-37.335967-65.974351l34.366061-201.953642A113.068583 113.068583 0 0 0 233.416237 602.891018l-145.313282-142.979784c-42.427236-40.730146-28.426248-80.611748 28.638384-88.885058L318.270708 341.539247a112.220038 112.220038 0 0 0 75.308344-54.94327l90.157875-183.709931C496.88937 76.58116 513.648128 63.640853 530.406887 63.640853s33.729652 13.152443 46.457823 39.033057l90.157875 183.709931A112.220038 112.220038 0 0 0 742.543065 341.539247l201.741505 29.486929c57.488904 8.485447 70.004939 48.367049 28.638384 88.885058L827.397536 602.891018a113.068583 113.068583 0 0 0-29.274793 88.885059z"  /><path fill="#2c2c2c" d="M509.193269 352.570328a201.741505 201.741505 0 0 0-201.52937 201.529369 31.820427 31.820427 0 0 0 63.640854 0 138.100652 138.100652 0 0 1 137.888516-137.888515 31.820427 31.820427 0 0 0 0-63.640854z"  /></svg>