<?xml version="1.0" standalone="no"?><!DOCTYPE svg PUBLIC "-//W3C//DTD SVG 1.1//EN" "http://www.w3.org/Graphics/SVG/1.1/DTD/svg11.dtd"><svg t="1607690756431" class="icon" viewBox="0 0 1026 1024" version="1.1" xmlns="http://www.w3.org/2000/svg" p-id="29732" xmlns:xlink="http://www.w3.org/1999/xlink" width="32.0625" height="32"><defs><style type="text/css">@font-face { font-family: uc-nexus-iconfont; src: url("chrome-extension://pogijhnlcfmcppgimcaccdkmbedjkmhi/res/font_9qmmi8b8jsxxbt9.woff") format("woff"), url("chrome-extension://pogijhnlcfmcppgimcaccdkmbedjkmhi/res/font_9qmmi8b8jsxxbt9.ttf") format("truetype"); }
</style></defs><path d="M120.79145 307.2a20.48 20.48 0 0 0-15.36 28.16l37.10976 92.16L86.22121 512H63.18121c-34.03776 0-61.44 27.4432-61.44 61.44v113.27488c0 96.21504 50.64704 166.2976 106.88512 206.72512a201.25696 201.25696 0 0 1-48.64 6.41024c-12.9024 0-23.92064-0.94208-34.57024-2.58048a20.48 20.48 0 1 0-6.38976 40.3456c12.0832 1.8432 25.6 3.19488 40.96 3.19488 31.72352 0 75.89888-8.66304 113.27488-32.64512 37.43744 24.20736 82.08384 32.62464 113.93024 32.62464 31.70304 0 75.89888-8.64256 113.2544-32.62464 37.39648 23.98208 81.57184 32.62464 113.29536 32.62464s75.91936-8.64256 113.27488-32.62464a193.55648 193.55648 0 0 0 32.01024 16.62976 20.52096 20.52096 0 0 0 10.24 3.85024c25.47712 8.84736 50.72896 12.14464 71.02464 12.14464 31.8464 0 76.4928-8.41728 113.93024-32.62464 37.376 23.98208 81.55136 32.62464 113.27488 32.62464 17.67424 0 32.64512-2.74432 44.81024-7.02464a20.74624 20.74624 0 0 0-14.09024-39.05536c-8.06912 2.8672-17.44896 5.12-30.72 5.12-27.77088 0-73.4208-8.88832-101.10976-30.72a20.48 20.48 0 0 0-24.96512 0c-19.61984 15.48288-48.04608 24.24832-72.97024 28.18048 116.5312-53.20704 222.14656-161.62816 255.3856-310.41536 3.13344-14.336 3.95264-33.81248-8.97024-49.90976C1002.25065 521.27744 985.72329 512 964.30121 512h-157.45024l-175.34976-197.75488A20.48 20.48 0 0 0 616.14121 307.2h-163.84a20.48 20.48 0 0 0-19.21024 14.09024L396.63657 430.08h-78.09024l-96.01024-115.2A20.48 20.48 0 0 0 206.54121 307.2H124.62121a20.48 20.48 0 0 0-1.92512 0 20.48 20.48 0 0 0-1.90464 0zM155.34121 348.16h41.59488l68.48512 81.92H186.06121a20.48 20.48 0 0 0-1.29024-7.68L155.34121 348.16z m311.68512 0h140.14464l72.97024 81.92h-240.64l27.52512-81.92zM163.02121 471.04h553.59488l45.44512 51.2-7.68 11.53024a20.48 20.48 0 0 0-7.68-1.29024H129.74121a20.48 20.48 0 0 0-1.92512 0 20.50048 20.50048 0 0 0-2.56 0L124.62121 529.28512 163.02121 471.04zM63.18121 552.96h26.23488l36.49536 108.81024A20.50048 20.50048 0 0 0 145.10121 675.84h552.96a20.50048 20.50048 0 0 0 17.28512-8.97024L791.49097 552.96H964.30121c1.59744 0 16.75264 7.33184 18.55488 9.60512 1.4336 1.76128 2.41664 7.31136 0.65536 15.36-37.5808 168.3456-180.26496 281.1904-311.7056 308.46976-11.6736-4.52608-22.81472-10.0352-31.98976-17.26464a20.48 20.48 0 0 0-25.6 0c-27.68896 21.8112-72.704 30.72-100.47488 30.72-27.77088 0-72.76544-8.88832-100.47488-30.72a20.48 20.48 0 0 0-25.6 0c-27.70944 21.8112-72.704 30.72-100.49536 30.72-27.7504 0-73.4208-8.9088-101.10976-30.72a20.48 20.48 0 0 0-13.43488-4.5056 20.48 20.48 0 0 0-11.53024 4.5056c-2.2528 1.78176-4.54656 3.4816-7.02464 5.12C99.71753 844.32896 42.70121 780.77952 42.70121 686.6944V573.44c0-7.7824 12.6976-20.48 20.48-20.48z m76.16512 20.48h588.14464l-40.96 61.44H159.84681l-20.48-61.44z m695.02976 27.52512c-12.67712 0-13.43488 7.68-13.43488 7.68v26.86976c0 18.8416 21.77024 19.84512 21.77024 19.84512h41.5744s18.57536-0.36864 18.57536-19.21024V608.6656s-0.7168-7.68-13.43488-7.68c-12.6976 0-14.09024 7.68-14.09024 7.68v15.99488s-1.3312 8.31488-13.43488 8.31488-13.43488-8.31488-13.43488-8.31488v-15.99488s-1.39264-7.68-14.09024-7.68zM170.70121 946.56512a20.48 20.48 0 0 0-9.60512 4.46464c-27.68896 21.83168-73.33888 30.72-101.10976 30.72-12.9024 0-23.92064-0.9216-34.57024-2.53952a20.48 20.48 0 1 0-6.38976 40.30464c12.0832 1.8432 25.6 3.21536 40.96 3.21536 31.72352 0 75.89888-8.66304 113.27488-32.64512 37.43744 24.20736 82.08384 32.62464 113.93024 32.62464 31.70304 0 75.89888-8.64256 113.2544-32.62464 37.39648 23.98208 81.57184 32.62464 113.29536 32.62464s75.91936-8.64256 113.27488-32.62464c37.376 23.98208 81.57184 32.62464 113.29536 32.62464 31.82592 0 76.47232-8.41728 113.90976-32.62464 37.376 23.98208 81.55136 32.62464 113.27488 32.62464 17.67424 0 32.64512-2.74432 44.81024-7.02464a20.74624 20.74624 0 0 0-14.09024-39.05536c-8.06912 2.8672-17.44896 5.12-30.72 5.12-27.77088 0-73.4208-8.88832-101.10976-30.72a20.48 20.48 0 0 0-24.96512 0c-27.68896 21.83168-73.35936 30.72-101.13024 30.72-27.7504 0-72.74496-8.86784-100.47488-30.72a20.48 20.48 0 0 0-25.6 0c-27.68896 21.83168-72.704 30.72-100.47488 30.72-27.77088 0-72.76544-8.86784-100.47488-30.72a20.48 20.48 0 0 0-25.6 0c-27.70944 21.83168-72.704 30.72-100.49536 30.72-27.7504 0-73.4208-8.88832-101.10976-30.72a20.48 20.48 0 0 0-13.43488-4.46464 20.48 20.48 0 0 0-1.92512 0z" fill="#d4237a" p-id="29733"></path></svg>