<?xml version="1.0" standalone="no"?><!DOCTYPE svg PUBLIC "-//W3C//DTD SVG 1.1//EN" "http://www.w3.org/Graphics/SVG/1.1/DTD/svg11.dtd"><svg t="1607691114440" class="icon" viewBox="0 0 1024 1024" version="1.1" xmlns="http://www.w3.org/2000/svg" p-id="31999" xmlns:xlink="http://www.w3.org/1999/xlink" width="32" height="32"><defs><style type="text/css">@font-face { font-family: uc-nexus-iconfont; src: url("chrome-extension://pogijhnlcfmcppgimcaccdkmbedjkmhi/res/font_9qmmi8b8jsxxbt9.woff") format("woff"), url("chrome-extension://pogijhnlcfmcppgimcaccdkmbedjkmhi/res/font_9qmmi8b8jsxxbt9.ttf") format("truetype"); }
</style></defs><path d="M562.996016 917.928287C450.804781 885.290837 187.665339 779.219124 187.665339 485.482072V99.952191h18.358565c2.039841 0 230.501992-2.039841 350.85259-91.792828l12.239044-8.159363 12.239044 8.159363c118.310757 89.752988 346.772908 91.792829 350.852589 91.792828h18.358566v385.529881C948.525896 779.219124 687.426295 885.290837 573.195219 917.928287l-6.119522 2.03984-4.079681-2.03984zM226.422311 485.482072c0 265.179283 236.621514 363.091633 342.693227 393.689243 106.071713-30.59761 342.693227-130.549801 342.693227-393.689243v-346.772909c-63.23506-2.039841-232.541833-16.318725-342.693227-89.752988C458.964143 122.390438 289.657371 134.629482 226.422311 138.709163v346.772909z" fill="#d4237a" p-id="32000"></path><path d="M569.115538 907.729084h-2.039841c-110.151394-30.59761-367.171315-134.629482-367.171315-422.247012V110.151394h8.159363c2.039841 0 234.581673-2.039841 356.972112-93.832669l6.119521-4.079681 2.039841 4.079681c122.390438 91.792829 352.89243 93.832669 356.972112 93.832669h8.159362v375.330678c0 287.61753-257.01992 391.649402-367.171315 422.247012h-2.03984zM216.223108 128.50996v356.972112c0 273.338645 244.780876 373.290837 352.89243 405.928287C677.227092 860.812749 922.007968 758.820717 922.007968 485.482072V128.50996c-44.876494 0-236.621514-10.199203-352.89243-93.832669C452.844622 118.310757 259.059761 126.47012 216.223108 128.50996z m0 0" fill="#d4237a" p-id="32001"></path><path d="M569.115538 828.175299V469.163347H858.772908v14.278884c-2.039841 222.342629-212.143426 318.215139-289.65737 344.733068z m0 0" fill="#d4237a" p-id="32002"></path><path d="M548.717131 450.804781h326.374502v32.63745c0 250.900398-250.900398 346.772908-301.896414 363.091634l-24.478088 8.159362V450.804781z m38.756973 350.85259c73.434263-28.557769 248.860558-120.350598 250.900398-312.095618H587.474104v312.095618z" fill="#d4237a" p-id="32003"></path><path d="M558.916335 840.414343V461.003984h305.976095v22.438247c0 242.741036-246.820717 336.573705-295.776892 352.89243l-10.199203 4.079682z m18.358565-363.091634v338.613546c65.2749-24.478088 271.298805-116.270916 271.298805-332.494024v-6.119522H577.2749z m0 0" fill="#d4237a" p-id="32004"></path><path d="M279.458167 195.824701s175.426295-14.278884 289.657371-85.673307v359.011953H279.458167V195.824701z m0 0" fill="#d4237a" p-id="32005"></path><path d="M261.099602 487.521912V177.466135l18.358565-2.03984c2.039841 0 171.346614-14.278884 279.458168-83.633466l28.557769-18.358566v412.047809h-326.374502z m287.617529-36.717131V142.788845c-91.792829 48.956175-206.023904 65.2749-250.900398 71.394422v236.621514h250.900398z" fill="#d4237a" p-id="32006"></path><path d="M577.2749 477.322709h-305.976095V187.665339h8.159362c2.039841 0 173.386454-14.278884 285.57769-85.673307l14.278884-8.159363-2.039841 383.49004zM287.61753 461.003984h271.298805V124.430279c-101.992032 59.155378-236.621514 75.474104-271.298805 79.553785v257.01992z m0 0" fill="#d4237a" p-id="32007"></path></svg>