<?xml version="1.0" standalone="no"?><!DOCTYPE svg PUBLIC "-//W3C//DTD SVG 1.1//EN" "http://www.w3.org/Graphics/SVG/1.1/DTD/svg11.dtd"><svg class="icon" width="32px" height="32.00px" viewBox="0 0 1024 1024" version="1.1" xmlns="http://www.w3.org/2000/svg"><path d="M512 512m-512 0a512 512 0 1 0 1024 0 512 512 0 1 0-1024 0Z" fill="#FFC0D8" /><path d="M742.1 186.9H281.6c-36.1 0-54.2 18.1-54.2 54.2v541.7c0 36.1 18.1 54.2 54.2 54.2h460.5c36.1 0 54.2-18.1 54.2-54.2V241.1c0-36.2-18.1-54.2-54.2-54.2zM647.3 539H376.5c-18.1 0-27.1-9-27.1-27.1s9-27.1 27.1-27.1h270.9c18.1 0 27.1 9 27.1 27.1s-9.1 27.1-27.2 27.1z m0-135.4H376.5c-18.1 0-27.1-9-27.1-27.1s9-27.1 27.1-27.1h270.9c18.1 0 27.1 9 27.1 27.1-0.1 18.1-9.1 27.1-27.2 27.1z" fill="#FFEBF8" /><path d="M742.1 186.9H281.6c-29.9 0-54.2 24.3-54.2 54.2v541.7c0 29.9 24.3 54.2 54.2 54.2h172.3c100.4-48.9 185.9-123.7 247.6-216.7 43.9-64.3 75.8-135.9 94.3-211.6l0.5-167.7c0-29.9-24.3-54.1-54.2-54.1zM647.3 539H376.5c-18.1 0-27.1-9-27.1-27.1s9-27.1 27.1-27.1h270.9c18.1 0 27.1 9 27.1 27.1s-9.1 27.1-27.2 27.1z m0-135.4H376.5c-18.1 0-27.1-9-27.1-27.1s9-27.1 27.1-27.1h270.9c18.1 0 27.1 9 27.1 27.1-0.1 18.1-9.1 27.1-27.2 27.1z" fill="#FFFDF3" /></svg>