<?xml version="1.0" standalone="no"?><!DOCTYPE svg PUBLIC "-//W3C//DTD SVG 1.1//EN" "http://www.w3.org/Graphics/SVG/1.1/DTD/svg11.dtd"><svg class="icon" width="64px" height="64.00px" viewBox="0 0 1024 1024" version="1.1" xmlns="http://www.w3.org/2000/svg"><path fill="#2c2c2c" d="M844.98963 1006.250667H179.01037c-76.003556 0-138.353778-58.633481-138.353777-131.337482V147.835259C40.656593 75.093333 102.779259 16.687407 179.01037 16.687407h118.177186v54.499556H178.972444c-46.155852 0-83.77837 34.360889-83.77837 76.61037V874.951111c0 42.249481 37.546667 76.61037 83.816296 76.61037h666.093037c46.155852 0 83.816296-34.360889 83.816297-76.61037V147.835259c0-42.287407-37.546667-76.61037-83.816297-76.61037h-110.174814V16.687407h110.098963c75.96563-0.18963 138.315852 58.405926 138.315851 131.147852v727.077926c0 72.704-62.350222 131.337481-138.315851 131.337482zM604.084148 71.035259h-171.159704a27.268741 27.268741 0 1 1 0-54.537481h171.159704a27.268741 27.268741 0 1 1 0 54.537481z m180.565333 304.014222H262.523259a27.268741 27.268741 0 1 1 0-54.537481h522.126222a27.268741 27.268741 0 1 1 0 54.537481z m0 179.010371H262.523259a27.268741 27.268741 0 1 1 0-54.499556h522.126222a27.268741 27.268741 0 1 1 0 54.537482z m0 179.01037H262.523259a27.268741 27.268741 0 1 1 0-54.575407h522.126222a27.268741 27.268741 0 1 1 0 54.537481z" /></svg>