<?xml version="1.0" standalone="no"?><!DOCTYPE svg PUBLIC "-//W3C//DTD SVG 1.1//EN" "http://www.w3.org/Graphics/SVG/1.1/DTD/svg11.dtd"><svg t="1607694045881" class="icon" viewBox="0 0 1024 1024" version="1.1" xmlns="http://www.w3.org/2000/svg" p-id="13260" xmlns:xlink="http://www.w3.org/1999/xlink" width="32" height="32"><defs><style type="text/css">@font-face { font-family: uc-nexus-iconfont; src: url("chrome-extension://pogijhnlcfmcppgimcaccdkmbedjkmhi/res/font_9qmmi8b8jsxxbt9.woff") format("woff"), url("chrome-extension://pogijhnlcfmcppgimcaccdkmbedjkmhi/res/font_9qmmi8b8jsxxbt9.ttf") format("truetype"); }
</style></defs><path d="M662.869333 128a85.333333 85.333333 0 0 1 65.152 30.208l197.162667 233.024a85.333333 85.333333 0 0 1-3.264 113.898667L573.866667 871.466667l-3.093334 3.093333a85.333333 85.333333 0 0 1-120.64-3.093333L102.08 505.130667a85.333333 85.333333 0 0 1-3.264-113.898667l197.162667-233.024A85.333333 85.333333 0 0 1 361.130667 128z m-9.877333 85.333333H370.986667a21.333333 21.333333 0 0 0-16.277334 7.552l-178.432 210.858667a21.333333 21.333333 0 0 0 0.832 28.48l319.402667 336.213333a21.333333 21.333333 0 0 0 30.933333 0l319.402667-336.213333a21.333333 21.333333 0 0 0 0.832-28.48l-178.432-210.858667a21.333333 21.333333 0 0 0-16.277333-7.552z m-341.824 161.834667a42.666667 42.666667 0 0 1 60.330667 0l125.418666 125.397333a21.333333 21.333333 0 0 0 30.165334 0l125.418666-125.397333a42.666667 42.666667 0 0 1 60.330667 60.330667L572.330667 576a85.333333 85.333333 0 0 1-120.661334 0l-140.501333-140.501333a42.666667 42.666667 0 0 1 0-60.330667z" p-id="13261" fill="#d4237a"></path></svg>