<?xml version="1.0" standalone="no"?><!DOCTYPE svg PUBLIC "-//W3C//DTD SVG 1.1//EN" "http://www.w3.org/Graphics/SVG/1.1/DTD/svg11.dtd"><svg t="1607691767233" class="icon" viewBox="0 0 1024 1024" version="1.1" xmlns="http://www.w3.org/2000/svg" p-id="6327" xmlns:xlink="http://www.w3.org/1999/xlink" width="32" height="32"><defs><style type="text/css">@font-face { font-family: uc-nexus-iconfont; src: url("chrome-extension://pogijhnlcfmcppgimcaccdkmbedjkmhi/res/font_9qmmi8b8jsxxbt9.woff") format("woff"), url("chrome-extension://pogijhnlcfmcppgimcaccdkmbedjkmhi/res/font_9qmmi8b8jsxxbt9.ttf") format("truetype"); }
</style></defs><path d="M897.7 122.7H126.3C56.6 122.7 0 179.3 0 248.9V775c0 69.6 56.6 126.3 126.3 126.3h771.5c69.6 0 126.3-56.6 126.3-126.3V248.9c-0.1-69.6-56.7-126.2-126.4-126.2zM412.1 460.5l3.7-5.2c22.6-31.9 47.3-50.4 71.3-53.2 15.6-1.9 30.2 2.7 42.3 13.3l2.1 1.8 1.5 2.3c7.2 10.9 13.5 25.6-1.6 41.9-13.3 14.4-41 27.3-75.9 35.3-4.7 1.1-9.4 2.1-14.2 2.9l-14.3 2.7-7.1-12.9c-1.6-2.9-3.3-5.9-5.2-9.1l-2.7-4.7v-15.1z m-39.7-46.1l-32.6-26c-28.5-22.8-71.6-44.3-114.9-17.6-24.4 15-38.9 41.3-38.8 70.1 0.1 30.4 16.6 58.5 44.2 75.2 16.7 10.1 39.5 18.1 65.9 23.3l36.5 7.1-26 26.6c-15.6 16-39.4 35.3-68.8 55.6-4.4 3-7.3 7.6-8.2 12.8-0.9 5.2 0.2 10.5 3.2 14.9 6.2 9 18.6 11.2 27.6 5 34.2-23.7 59.5-44.4 77.1-63.3l34.7-37v300.6h-246c-47.7 0-86.6-38.8-86.6-86.6V248.9c0-47.7 38.8-86.6 86.6-86.6h246.2v252.1z m-11.2 54.7l-5.7 11.1c-2.2 4.3-4.3 8.6-6.3 12.7l-6.1 12.8-14.1-1.5c-23-2.4-55.2-8.2-78.1-22-15.6-9.5-25-25-25.1-41.5-0.1-14.9 7.4-28.3 19.9-36.1 13.9-8.6 52.4-20.5 108 54.4l7.5 10.1z m623.1 306c0 47.7-38.8 86.6-86.6 86.6H412.1V552.2l33.1 28.2c32.8 28 75.2 52.4 126 72.5 4.9 2 10.3 1.9 15.2-0.2 4.9-2.1 8.6-6 10.6-10.9 4-10.2-1-21.7-11.1-25.8-38.9-15.4-72.2-33.3-99-53.3l-31.1-23.1 36.8-12.1c30.3-9.9 53.2-23.2 68.1-39.3 25.1-27.1 26-61.9 2.4-95.3l-1-1.4-1.2-1.2c-32.5-32.6-76.8-37.5-118.6-13.1l-30.2 17.7V162.4h485.6c47.7 0 86.6 38.8 86.6 86.6v526.1z" p-id="6328" fill="#d4237a"></path></svg>