<?xml version="1.0" standalone="no"?><!DOCTYPE svg PUBLIC "-//W3C//DTD SVG 1.1//EN" "http://www.w3.org/Graphics/SVG/1.1/DTD/svg11.dtd"><svg t="1605942190429" class="icon" viewBox="0 0 1024 1024" version="1.1" xmlns="http://www.w3.org/2000/svg" p-id="6552" xmlns:xlink="http://www.w3.org/1999/xlink" width="32" height="32"><defs><style type="text/css">@font-face { font-family: uc-nexus-iconfont; src: url("chrome-extension://pogijhnlcfmcppgimcaccdkmbedjkmhi/res/font_9qmmi8b8jsxxbt9.woff") format("woff"), url("chrome-extension://pogijhnlcfmcppgimcaccdkmbedjkmhi/res/font_9qmmi8b8jsxxbt9.ttf") format("truetype"); }
</style></defs><path d="M512 512m-512 0a512 512 0 1 0 1024 0 512 512 0 1 0-1024 0Z" fill="#706BFF" fill-opacity=".4" p-id="6553"></path><path d="M778.012444 684.657778l-37.091555-56.775111v-155.306667a232.789333 232.789333 0 0 0-161.080889-222.464A79.36 79.36 0 0 0 505.685333 199.111111c-33.621333 0-61.44 20.849778-73.016889 51.000889a234.268444 234.268444 0 0 0-161.080888 222.492444v156.444445L234.496 685.795556a30.833778 30.833778 0 0 0-6.940444 18.545777v3.470223c1.137778 19.712 16.213333 38.257778 39.395555 38.257777h129.792a116.849778 116.849778 0 0 0 220.16 0h129.820445c30.151111 0 48.668444-34.787556 31.288888-61.44z m-227.128888 85.76a78.307556 78.307556 0 0 1-45.226667 15.075555c-16.213333 0-32.426667-4.636444-45.169778-15.075555a87.608889 87.608889 0 0 1-22.016-24.32h134.428445a87.608889 87.608889 0 0 1-22.016 24.32z m71.850666-63.715556H266.951111l37.091556-56.803555 6.940444-9.272889v-168.021334c0-41.728 12.743111-82.289778 38.257778-115.882666 11.576889-16.213333 26.652444-30.151111 42.865778-42.894222a219.392 219.392 0 0 1 54.471111-27.790223l17.379555-5.802666 6.968889-17.379556c2.304-6.968889 8.106667-13.937778 13.880889-18.545778 6.968889-4.636444 13.937778-6.968889 22.044445-6.968889 8.106667 0 16.213333 2.332444 22.016 6.968889 6.940444 4.636444 11.576889 10.439111 13.880888 18.545778l6.968889 17.351111 17.379556 5.831111c19.712 5.774222 37.091556 15.075556 54.471111 27.790223 16.213333 11.605333 30.151111 26.652444 42.865778 42.894222 24.348444 33.592889 38.257778 72.988444 38.257778 115.882666v168.021334l6.940444 9.272889 37.091556 56.775111h-124.017778z" fill="#FFFFFF" p-id="6554"></path><path d="M682.666667 341.333333m-56.888889 0a56.888889 56.888889 0 1 0 113.777778 0 56.888889 56.888889 0 1 0-113.777778 0Z" fill="#FA5252" p-id="6555"></path></svg>