<?xml version="1.0" standalone="no"?><!DOCTYPE svg PUBLIC "-//W3C//DTD SVG 1.1//EN" "http://www.w3.org/Graphics/SVG/1.1/DTD/svg11.dtd"><svg class="icon" width="64px" height="64.00px" viewBox="0 0 1024 1024" version="1.1" xmlns="http://www.w3.org/2000/svg"><path fill="#2c2c2c" d="M929.792 142.848C723.968 130.56 527.36 5.12 525.312 4.096c-8.192-5.12-18.432-5.12-26.624 0-2.048 1.024-198.656 126.464-404.48 138.752-12.8 1.024-23.04 11.264-23.04 24.576v224.768c0 193.024 77.824 374.272 213.504 497.152 63.488 57.344 136.704 101.888 218.112 132.608 2.56 1.024 5.632 1.536 8.704 1.536 3.072 0 5.632-0.512 8.704-1.536 81.408-30.72 154.624-75.264 218.112-132.608 135.68-122.88 213.504-304.128 213.504-497.152V167.424c0.512-12.8-9.216-23.552-22.016-24.576z m-26.112 249.344c0 179.2-72.192 347.648-197.632 461.312-56.32 51.2-121.856 91.648-194.048 119.808-72.192-28.672-137.728-68.608-194.048-119.808-125.44-113.664-197.632-282.112-197.632-461.312V189.952c180.224-17.408 344.576-108.544 391.68-136.704 47.104 28.16 211.456 119.296 391.68 136.704v202.24zM362.496 488.448c-8.704-10.24-24.064-11.264-34.304-2.56-10.24 8.704-11.264 24.064-2.56 34.304l115.2 132.608c4.608 5.12 10.752 8.192 17.408 8.192h1.024c6.656 0 12.8-2.56 17.408-7.168l261.12-265.216c9.216-9.728 9.216-25.088-0.512-34.304-9.728-9.216-25.088-9.216-34.304 0.512l-242.688 246.272-97.792-112.64z" /></svg>