<?xml version="1.0" standalone="no"?><!DOCTYPE svg PUBLIC "-//W3C//DTD SVG 1.1//EN" "http://www.w3.org/Graphics/SVG/1.1/DTD/svg11.dtd"><svg class="icon" width="64px" height="49.31px" viewBox="0 0 1329 1024" version="1.1" xmlns="http://www.w3.org/2000/svg"><path fill="#2c2c2c" d="M1204.148 14.462h-1079.6C55.826 14.462 0 74.185 0 147.772v729.787c0 73.586 55.708 133.305 124.548 133.305h1079.6c68.721 0 124.548-59.719 124.548-133.305V147.772c0-73.587-55.827-133.31-124.548-133.31z m67.99 863.097c0 31.135-25.543 73.462-56.92 73.462H113.724c-31.5 0-56.924-42.328-56.924-73.462V147.648c0-31.14 25.542-71.396 56.924-71.396H1215.22c31.5 0 56.92 40.256 56.92 71.396v729.91h-0.002z m-194.12-583.954H853c-12.53 0-22.744 9.365-22.744 21.044v17.27c0 11.68 10.215 21.043 22.744 21.043h225.018c12.647 0 22.743-9.364 22.743-21.043v-17.27c0-11.68-10.214-21.044-22.743-21.044z m0 190.477H853c-12.53 0-22.744 9.364-22.744 21.037v15.086c0 11.674 10.215 21.044 22.744 21.044h225.018c12.647 0 22.743-9.37 22.743-21.044V505.12c0-11.673-10.214-21.037-22.743-21.037z m0 187.796H853c-12.53 0-22.744 9.488-22.744 21.043v13.746c0 11.674 10.215 21.038 22.744 21.038h225.018c12.647 0 22.743-9.364 22.743-21.038V692.92c0-11.555-10.214-21.043-22.743-21.043zM434.589 324.745c56.559 0 102.536 45.972 102.536 102.53 0 27.367-13.627 55.225-37.463 76.51-20.07 18.003-28.217 45.854-20.435 71.638 7.781 25.667 29.557 44.52 56.074 48.169 2.308 0.366 29.8 5.107 55.218 18.002 11.797 5.958 20.92 12.647 26.393 19.214 4.865 5.84 5.84 10.339 5.84 15.328v26.76H246.302V676.26c0-5.112 0-18.733 31.99-34.789 25.3-12.77 52.544-17.27 54.852-17.636 26.759-3.525 48.535-22.26 56.559-48.044 8.03-25.785-0.118-53.884-20.312-71.887-23.836-21.285-37.463-49.136-37.463-76.503 0.124-56.56 46.102-102.656 102.66-102.656m-2.066-53.4c-89.04 0-161.162 72.129-161.162 161.162 0 47.802 23.718 90.739 56.8 120.297 0 0-137.324 19.336-137.324 113.478v60.696c0 13.864 11.195 25.054 25.058 25.054h433.249c13.87 0 25.058-11.19 25.058-25.054v-60.696c0-93.167-137.325-113.478-137.325-113.478 33.089-29.558 56.807-72.495 56.807-120.297 0-89.033-72.129-161.161-161.161-161.161z m0 0" /></svg>