<?xml version="1.0" standalone="no"?><!DOCTYPE svg PUBLIC "-//W3C//DTD SVG 1.1//EN" "http://www.w3.org/Graphics/SVG/1.1/DTD/svg11.dtd"><svg t="1607690400472" class="icon" viewBox="0 0 1024 1024" version="1.1" xmlns="http://www.w3.org/2000/svg" p-id="24607" xmlns:xlink="http://www.w3.org/1999/xlink" width="32" height="32"><defs><style type="text/css">@font-face { font-family: uc-nexus-iconfont; src: url("chrome-extension://pogijhnlcfmcppgimcaccdkmbedjkmhi/res/font_9qmmi8b8jsxxbt9.woff") format("woff"), url("chrome-extension://pogijhnlcfmcppgimcaccdkmbedjkmhi/res/font_9qmmi8b8jsxxbt9.ttf") format("truetype"); }
</style></defs><path d="M534.99904 982.8608H285.32736a20.56192 20.56192 0 1 0 0 41.13408h249.67168a20.5568 20.5568 0 0 0 20.56704-20.56704 20.55168 20.55168 0 0 0-20.56704-20.56704zM410.1632 958.6176c32.91136 0 63.50336-14.9248 83.9424-40.97536 108.38528-138.17344 290.20672-391.84384 290.20672-538.37312C784.31232 172.96384 616.46848 5.12 410.1632 5.12S36.01408 172.96384 36.01408 379.26912c0 146.52928 181.83168 400.19968 290.21696 538.37312 20.4288 26.05056 51.0208 40.97536 83.93216 40.97536z m0-883.59936c72.02816 32.94208 125.19936 160.47104 125.19936 304.24576 0 112.42496-73.6768 311.26016-125.19936 436.5568-51.51232-125.27616-125.18912-324.11136-125.18912-436.5568 0-143.77472 53.16096-271.30368 125.18912-304.24576z m312.44288 304.25088c0 91.5712-96.96256 268.4416-266.41408 486.61504 59.38688-141.04576 140.8768-358.04672 140.8768-486.61504 0-119.9104-31.88736-226.42176-83.65056-294.83008 121.68192 42.74176 209.18784 158.73024 209.18784 294.83008z m-415.6928-294.83008C255.1552 152.84736 223.26784 259.35872 223.26784 379.26912c0 128.58368 81.48992 345.58976 140.86656 486.62016-169.46688-218.17344-266.41408-395.04384-266.41408-486.62016 0-136.10496 87.51104-252.09344 209.19296-294.83008z" fill="#d4237a" p-id="24608"></path></svg>