<?xml version="1.0" standalone="no"?><!DOCTYPE svg PUBLIC "-//W3C//DTD SVG 1.1//EN" "http://www.w3.org/Graphics/SVG/1.1/DTD/svg11.dtd"><svg t="1607690738553" class="icon" viewBox="0 0 1024 1024" version="1.1" xmlns="http://www.w3.org/2000/svg" p-id="28801" xmlns:xlink="http://www.w3.org/1999/xlink" width="32" height="32"><defs><style type="text/css">@font-face { font-family: uc-nexus-iconfont; src: url("chrome-extension://pogijhnlcfmcppgimcaccdkmbedjkmhi/res/font_9qmmi8b8jsxxbt9.woff") format("woff"), url("chrome-extension://pogijhnlcfmcppgimcaccdkmbedjkmhi/res/font_9qmmi8b8jsxxbt9.ttf") format("truetype"); }
</style></defs><path d="M986.624 445.218133c-3.601067-3.618133-6.8608-7.082667-10.120533-10.564266a11.383467 11.383467 0 0 1 2.269866-17.442134l10.922667-6.826666a47.872 47.872 0 0 0 19.2512-57.941334l-20.189867-51.882666a53.76 53.76 0 0 0-55.466666-34.030934l-94.139734 9.4208a11.332267 11.332267 0 0 1-10.888533-5.461333c-2.9696-5.0176-4.4032-10.052267-9.437867-15.069867-13.6192-13.6192-20.650667-27.255467-27.477333-34.5088a12.663467 12.663467 0 0 1-1.297067-1.621333c-27.733333-41.5232-34.8672-48.469333-62.8736-48.469333H311.159467c-21.0944 0-28.16 6.997333-63.197867 49.032533a9.984 9.984 0 0 1-0.546133 0.597333c-6.9632 7.133867-13.994667 21.060267-27.921067 34.9696 0 0-4.932267 4.932267-10.666667 14.7968a11.3664 11.3664 0 0 1-11.008 5.563734l-98.4576-10.359467a38.638933 38.638933 0 0 0-39.355733 22.7328l-26.197333 58.948267a47.547733 47.547733 0 0 0 22.971733 62.208l3.7888 1.809066c6.826667 3.242667 8.635733 12.117333 3.652267 17.783467-9.796267 11.127467-22.493867 26.043733-24.746667 28.689067a11.707733 11.707733 0 0 0-0.648533 0.853333l-17.749334 25.463467-13.738666 19.012266a11.537067 11.537067 0 0 0-0.955734 1.604267c-6.587733 13.2096-5.461333 12.219733-5.461333 32.938667v256.5632a74.837333 74.837333 0 0 0 74.820267 74.837333h122.589866c42.325333 0 63.470933-28.2112 63.470934-63.470933v-9.762134a11.383467 11.383467 0 0 1 11.3664-11.383466h470.818133a11.383467 11.383467 0 0 1 11.383467 11.383466v9.762134c0 35.259733 21.162667 63.470933 63.453866 63.470933h122.589867c45.226667 0 81.902933-36.676267 81.902933-81.902933V551.560533c0-49.3568 0.785067-54.237867-13.312-75.383466a824.968533 824.968533 0 0 0-23.381333-30.958934z m-51.114667-84.9408l-17.408 10.4448a11.383467 11.383467 0 0 1-13.892266-1.706666l-7.1168-7.133867a11.5712 11.5712 0 0 1-1.28-1.518933 70.570667 70.570667 0 0 0-3.328-4.334934 11.3664 11.3664 0 0 1 7.202133-18.4832l24.866133-3.549866a11.383467 11.383467 0 0 1 11.076267 4.949333l3.498667 5.256533a11.383467 11.383467 0 0 1-3.618134 16.0768z m-604.6208-118.954666h383.607467c3.5328 0 6.877867 1.6384 9.045333 4.4544l74.24 97.109333a11.383467 11.383467 0 0 1-9.045333 18.295467H256.648533a11.383467 11.383467 0 0 1-9.045333-18.295467l74.24-97.109333a11.383467 11.383467 0 0 1 9.045333-4.4544zM125.4912 340.036267h16.964267c9.250133 0 14.7968 10.564267 9.2672 17.9712a11.195733 11.195733 0 0 1-5.614934 4.130133l-13.0048 4.334933a11.3664 11.3664 0 0 1-9.898666-1.314133l-4.983467-3.328a11.383467 11.383467 0 0 1-1.723733-17.5104l0.955733-0.955733a11.383467 11.383467 0 0 1 8.0384-3.328z m770.901333 458.308266H844.288a11.383467 11.383467 0 0 1-11.383467-11.383466v-26.743467a46.4896 46.4896 0 0 0-46.472533-46.4896H244.8384a46.4896 46.4896 0 0 0-46.4896 46.4896v26.743467a11.383467 11.383467 0 0 1-11.383467 11.383466H82.807467a11.383467 11.383467 0 0 1-11.383467-11.383466V537.463467c0-14.114133-0.0512-24.0128 1.416533-27.374934 1.450667-3.362133 11.5712-19.677867 24.6272-33.911466l38.144-40.874667a11.383467 11.383467 0 0 1 8.328534-3.618133h733.781333c2.935467 0 5.751467 1.143467 7.850667 3.157333l22.186666 21.1968c6.8608 6.826667 24.3712 23.842133 29.474134 32.648533a13.943467 13.943467 0 0 0 0.9216 1.416534c7.816533 10.325333 7.765333 12.1856 13.482666 23.842133a11.383467 11.383467 0 0 1 1.160534 5.0176v268.014933a11.3664 11.3664 0 0 1-11.383467 11.3664h-45.021867zM209.732267 544.512h132.352a11.383467 11.383467 0 0 1 11.383466 11.383467v47.752533a11.383467 11.383467 0 0 1-11.383466 11.383467h-132.352a11.383467 11.383467 0 0 1-11.383467-11.383467v-47.752533a11.383467 11.383467 0 0 1 11.383467-11.383467z m479.453866 0h132.369067a11.383467 11.383467 0 0 1 11.3664 11.383467v47.752533a11.383467 11.383467 0 0 1-11.3664 11.383467h-132.369067a11.383467 11.383467 0 0 1-11.383466-11.383467v-47.752533a11.383467 11.383467 0 0 1 11.383466-11.383467z" fill="#d4237a" p-id="28802"></path></svg>