<?xml version="1.0" standalone="no"?><!DOCTYPE svg PUBLIC "-//W3C//DTD SVG 1.1//EN" "http://www.w3.org/Graphics/SVG/1.1/DTD/svg11.dtd"><svg t="1607693563692" class="icon" viewBox="0 0 1024 1024" version="1.1" xmlns="http://www.w3.org/2000/svg" p-id="10328" xmlns:xlink="http://www.w3.org/1999/xlink" width="32" height="32"><defs><style type="text/css">@font-face { font-family: uc-nexus-iconfont; src: url("chrome-extension://pogijhnlcfmcppgimcaccdkmbedjkmhi/res/font_9qmmi8b8jsxxbt9.woff") format("woff"), url("chrome-extension://pogijhnlcfmcppgimcaccdkmbedjkmhi/res/font_9qmmi8b8jsxxbt9.ttf") format("truetype"); }
</style></defs><path d="M887.467 392.533V266.24c0-34.133-27.307-61.44-61.44-61.44H197.973c-34.133 0-61.44 27.307-61.44 61.44v126.293c0 17.067 0 30.72 20.48 40.96 27.307 13.654 61.44 40.96 61.44 81.92 0 54.614-34.133 75.094-61.44 81.92-17.066 13.654-20.48 34.134-20.48 44.374V768c0 34.133 27.307 61.44 61.44 61.44h624.64c34.134 0 61.44-27.307 61.44-61.44V641.707c0-23.894-6.826-30.72-20.48-40.96-44.373-23.894-61.44-44.374-61.44-81.92 0-37.547 17.067-58.027 61.44-81.92 23.894-17.067 23.894-27.307 23.894-44.374z m-40.96 354.987c0 23.893-17.067 40.96-40.96 40.96H218.453c-23.893 0-40.96-17.067-40.96-40.96V634.88c47.787-17.067 81.92-61.44 81.92-116.053 0-54.614-34.133-98.987-81.92-116.054V286.72c0-23.893 17.067-40.96 40.96-40.96h583.68c23.894 0 40.96 17.067 40.96 40.96v112.64c-47.786 17.067-81.92 61.44-81.92 116.053 0 54.614 34.134 98.987 81.92 116.054l3.414 116.053z m-296.96-273.067l85.333-92.16c3.413-3.413 3.413-10.24 0-13.653l-13.653-13.653c-3.414-3.414-10.24-3.414-13.654 0L512 457.387l-95.573-102.4c-3.414-3.414-10.24-3.414-13.654 0L389.12 368.64c-3.413 3.413-3.413 10.24 0 13.653l85.333 92.16h-78.506c-6.827 0-10.24 3.414-10.24 10.24v20.48c0 6.827 3.413 10.24 10.24 10.24h92.16v40.96h-92.16c-6.827 0-10.24 3.414-10.24 10.24v20.48c0 6.827 3.413 10.24 10.24 10.24h92.16v71.68c0 6.827 3.413 10.24 10.24 10.24h20.48c6.826 0 10.24-3.413 10.24-10.24v-71.68h92.16c6.826 0 10.24-3.413 10.24-10.24v-20.48c0-6.826-3.414-10.24-10.24-10.24h-92.16v-40.96h92.16c6.826 0 10.24-3.413 10.24-10.24v-20.48c0-6.826-3.414-10.24-10.24-10.24h-71.68z" fill="#d4237a" p-id="10329"></path></svg>