<?xml version="1.0" standalone="no"?><!DOCTYPE svg PUBLIC "-//W3C//DTD SVG 1.1//EN" "http://www.w3.org/Graphics/SVG/1.1/DTD/svg11.dtd"><svg t="1609487238740" class="icon" viewBox="0 0 1024 1024" version="1.1" xmlns="http://www.w3.org/2000/svg" p-id="2093" xmlns:xlink="http://www.w3.org/1999/xlink" width="32" height="32"><defs><style type="text/css">@font-face { font-family: uc-nexus-iconfont; src: url("chrome-extension://pogijhnlcfmcppgimcaccdkmbedjkmhi/res/font_9qmmi8b8jsxxbt9.woff") format("woff"), url("chrome-extension://pogijhnlcfmcppgimcaccdkmbedjkmhi/res/font_9qmmi8b8jsxxbt9.ttf") format("truetype"); }
</style></defs><path d="M512 512m-512 0a512 512 0 1 0 1024 0 512 512 0 1 0-1024 0Z" fill="#E2185C" p-id="2094"></path><path d="M512 223.232c-133.12 0-241.664 106.496-241.664 239.616 0 61.44 22.528 116.736 59.392 157.696 0 2.048 2.048 4.096 4.096 6.144l155.648 161.792 2.048 2.048c2.048 2.048 4.096 4.096 8.192 6.144 8.192 4.096 20.48 2.048 26.624-4.096 2.048-2.048 4.096-4.096 4.096-6.144l153.6-159.744 4.096-4.096c38.912-43.008 61.44-98.304 61.44-159.744 4.096-131.072-104.448-239.616-237.568-239.616z m0 337.92c-59.392 0-108.544-49.152-108.544-108.544s49.152-108.544 108.544-108.544 108.544 49.152 108.544 108.544-49.152 108.544-108.544 108.544z m0 0" fill="#FFFFFF" p-id="2095"></path></svg>