<?xml version="1.0" standalone="no"?><!DOCTYPE svg PUBLIC "-//W3C//DTD SVG 1.1//EN" "http://www.w3.org/Graphics/SVG/1.1/DTD/svg11.dtd"><svg t="1607691355733" class="icon" viewBox="0 0 1099 1024" version="1.1" xmlns="http://www.w3.org/2000/svg" p-id="1298" xmlns:xlink="http://www.w3.org/1999/xlink" width="34.34375" height="32"><defs><style type="text/css">@font-face { font-family: uc-nexus-iconfont; src: url("chrome-extension://pogijhnlcfmcppgimcaccdkmbedjkmhi/res/font_9qmmi8b8jsxxbt9.woff") format("woff"), url("chrome-extension://pogijhnlcfmcppgimcaccdkmbedjkmhi/res/font_9qmmi8b8jsxxbt9.ttf") format("truetype"); }
</style></defs><path d="M1000.349865 918.134785h-21.12196v68.27376c0 20.715478-16.951765 37.50164-37.862956 37.501641-20.926246 0-37.878011-16.786162-37.878012-37.501641v-68.27376H635.254612c-20.926246 0-37.878011-16.786162-37.878012-37.50164 0-20.715478 16.951765-37.50164 37.878012-37.501641h365.095253c12.540693 0 22.732829-10.086752 22.732828-22.491951v-133.009631c0-20.715478 16.951765-37.50164 37.862957-37.50164 20.926246 0 37.878011 16.786162 37.878012 37.50164v133.009631c0 53.760882-44.17094 97.495231-98.473797 97.495232zM805.976651 438.411877v241.901387c0 20.715478-16.951765 37.50164-37.862957 37.50164-20.926246 0-37.878011-16.786162-37.878011-37.50164V438.411877c0-20.715478 16.951765-37.50164 37.878011-37.50164 20.911192 0 37.862957 16.786162 37.862957 37.50164z m254.968999 71.691212c-20.911192 0-37.862957-16.786162-37.862957-37.50164V298.085587c0-12.405199-10.192136-22.507006-22.732828-22.507006H98.458754c-12.525638 0-22.717774 10.101807-22.717774 22.507006v219.273942c0 20.715478-16.951765 37.50164-37.878011 37.50164-20.911192 0-37.862957-16.786162-37.862957-37.50164V298.085587c0-53.760882 44.17094-97.510286 98.458742-97.510286h197.218581V50.899947c0-28.017082 23.786669-50.825186 53.023195-50.825185h401.422614c29.221471 0 53.008139 22.808103 53.008139 50.825185v149.675354h197.218582c54.302857 0 98.473797 43.749404 98.473797 97.510286v174.515862c0 20.715478-16.951765 37.50164-37.878012 37.50164zM727.390315 75.078042H371.418304v125.497259h355.972011V75.078042zM292.831968 680.313264V438.411877c0-20.715478 16.96682-37.50164 37.878012-37.50164s37.862957 16.786162 37.862956 37.50164v241.901387c0 20.715478-16.951765 37.50164-37.862956 37.50164-20.911192 0-37.878011-16.786162-37.878012-37.50164zM37.862969 600.116059c20.926246 0 37.878011 16.786162 37.878011 37.50164v183.021854c0 12.405199 10.192136 22.491951 22.717774 22.491951h435.8079c20.911192 0 37.862957 16.786162 37.862957 37.501641 0 20.715478-16.951765 37.50164-37.862957 37.50164H195.321682v68.27376c0 20.715478-16.951765 37.50164-37.862957 37.501641-20.926246 0-37.878011-16.786162-37.878011-37.501641v-68.27376H98.458754c-54.287802 0-98.458742-43.73435-98.458742-97.495232V637.617699c0-20.715478 16.951765-37.50164 37.862957-37.50164z" p-id="1299" fill="#d4237a"></path></svg>