<?xml version="1.0" standalone="no"?><!DOCTYPE svg PUBLIC "-//W3C//DTD SVG 1.1//EN" "http://www.w3.org/Graphics/SVG/1.1/DTD/svg11.dtd"><svg class="icon" width="32px" height="32.00px" viewBox="0 0 1024 1024" version="1.1" xmlns="http://www.w3.org/2000/svg"><path d="M181.58933333 293.54666667c-18.0224 0-36.59093333 15.83786667-38.77546666 34.4064l-34.4064 606.75413333c0 9.28426667 2.18453333 18.0224 9.28426666 25.12213333 7.09973333 7.09973333 13.65333333 9.28426667 22.9376 9.28426667h649.35253334c9.28426667 0 18.0224-4.36906667 22.9376-9.28426667 7.09973333-7.09973333 9.28426667-15.83786667 9.28426666-25.12213333l-42.05226666-606.75413333c-2.18453333-20.75306667-18.0224-34.4064-38.77546667-34.4064H181.58933333z" fill="#FF6446" /><path d="M864.80213333 1003.52H159.744c-23.48373333 0-44.78293333-9.28426667-60.6208-25.66826667-15.83786667-16.93013333-23.48373333-38.77546667-22.39146667-62.2592l43.14453334-620.9536c2.73066667-46.96746667 42.5984-83.5584 90.65813333-83.5584h600.20053333c48.05973333 0 87.92746667 36.59093333 90.65813334 83.5584l46.42133333 620.9536c1.6384 23.48373333-6.5536 45.32906667-22.39146667 62.2592-15.83786667 16.384-37.13706667 25.66826667-60.6208 25.66826667zM210.5344 254.22506667c-24.576 0-45.8752 19.11466667-46.96746667 42.5984l-43.14453333 620.9536c-0.54613333 11.4688 3.2768 21.84533333 10.37653333 29.4912 7.64586667 8.192 18.0224 12.56106667 28.94506667 12.56106666h705.05813333c11.4688 0 21.2992-4.36906667 28.94506667-12.56106666 7.64586667-7.64586667 10.92266667-18.56853333 10.37653333-29.4912l-46.42133333-620.9536c-1.6384-23.48373333-22.9376-43.14453333-47.5136-43.14453334 0 0.54613333-599.6544 0.54613333-599.6544 0.54613334z" fill="#FFA266" /><path d="M512 706.42346667c-111.95733333 0-202.61546667-90.65813333-202.61546667-202.61546667 0-12.01493333 9.8304-21.84533333 21.84533334-21.84533333s21.84533333 9.8304 21.84533333 21.84533333c0 87.92746667 71.54346667 159.47093333 159.47093333 159.47093333s159.47093333-71.54346667 159.47093334-159.47093333c0-12.01493333 9.8304-21.84533333 21.84533333-21.84533333s21.84533333 9.8304 21.84533333 21.84533333c-1.09226667 111.4112-91.7504 202.61546667-203.70773333 202.61546667zM512 20.48c111.95733333 0 202.61546667 91.20426667 202.61546667 202.61546667 0 12.01493333-9.8304 21.84533333-21.84533334 21.84533333s-21.84533333-9.8304-21.84533333-21.84533333c0-87.92746667-71.54346667-159.47093333-159.47093333-159.47093334S352.52906667 135.168 352.52906667 223.09546667c0 12.01493333-9.8304 21.84533333-21.84533334 21.84533333s-21.84533333-9.8304-21.84533333-21.84533333C309.38453333 111.13813333 400.5888 20.48 512 20.48z" fill="#FFA266" /></svg>