<?xml version="1.0" standalone="no"?><!DOCTYPE svg PUBLIC "-//W3C//DTD SVG 1.1//EN" "http://www.w3.org/Graphics/SVG/1.1/DTD/svg11.dtd"><svg class="icon" width="32px" height="32.00px" viewBox="0 0 1024 1024" version="1.1" xmlns="http://www.w3.org/2000/svg"><path d="M675.204414 352.079448l266.27531 171.184552A141.241379 141.241379 0 0 1 1006.344828 642.08331V882.758621a141.241379 141.241379 0 0 1-141.24138 141.241379h-247.172414a105.931034 105.931034 0 0 1-105.931034-105.931034V441.202759a105.931034 105.931034 0 0 1 163.204414-89.123311z" fill="#FFE8B9" /><path d="M547.310345 0a141.241379 141.241379 0 0 1 141.241379 141.241379v741.517242a141.241379 141.241379 0 0 1-141.241379 141.241379H158.896552a141.241379 141.241379 0 0 1-141.24138-141.241379V141.241379a141.241379 141.241379 0 0 1 141.24138-141.241379h388.413793zM264.827586 388.413793H158.896552a35.310345 35.310345 0 0 0-35.310345 35.310345v70.62069a35.310345 35.310345 0 0 0 35.310345 35.310344h105.931034a35.310345 35.310345 0 0 0 35.310345-35.310344v-70.62069a35.310345 35.310345 0 0 0-35.310345-35.310345z m0-211.862069H158.896552a35.310345 35.310345 0 0 0-35.310345 35.310345v70.62069a35.310345 35.310345 0 0 0 35.310345 35.310344h105.931034a35.310345 35.310345 0 0 0 35.310345-35.310344V211.862069a35.310345 35.310345 0 0 0-35.310345-35.310345z" fill="#FFBA30" /></svg>