<?xml version="1.0" standalone="no"?><!DOCTYPE svg PUBLIC "-//W3C//DTD SVG 1.1//EN" "http://www.w3.org/Graphics/SVG/1.1/DTD/svg11.dtd"><svg t="1606390734299" class="icon" viewBox="0 0 1024 1024" version="1.1" xmlns="http://www.w3.org/2000/svg" p-id="1992" xmlns:xlink="http://www.w3.org/1999/xlink" width="32" height="32"><defs><style type="text/css">@font-face { font-family: uc-nexus-iconfont; src: url("chrome-extension://pogijhnlcfmcppgimcaccdkmbedjkmhi/res/font_9qmmi8b8jsxxbt9.woff") format("woff"), url("chrome-extension://pogijhnlcfmcppgimcaccdkmbedjkmhi/res/font_9qmmi8b8jsxxbt9.ttf") format("truetype"); }
</style></defs><path d="M793.404029 176.862008l47.479459 47.820792-55.569057 55.944524-47.445326-47.820792 55.534924-55.944524z m23.73973 23.910396l23.722662 23.910396-32.904528 33.143461-513.228714 516.949247-186.879969 102.741316A66.901322 66.901322 0 0 1 16.734292 850.585629a68.061855 68.061855 0 0 1-1.706666-61.405857L109.23561 589.346206 623.181124 71.680159l32.904528-33.160528A129.570112 129.570112 0 0 1 748.48457 0.000171c34.815994 0 67.754655 13.738664 92.398918 38.536527 50.978125 51.353591 50.978125 134.809578 0 186.146102l-23.739729-23.893329z m-23.722663-23.893329a64.426656 64.426656 0 0 0 0-90.504519 62.737056 62.737056 0 0 0-44.936526-18.756263c-17.03253 0-32.887461 6.621866-44.919459 18.739197l-32.904528 33.160527 89.838918 90.487452 32.904528-33.143461z m-601.2927 424.618595l90.487452 89.855985 430.421261-433.527394-89.855985-90.504518-431.052728 434.175927z m37.375994 132.095978L151.902269 656.520595 75.682549 818.176034l153.838908-84.582386zM328.115573 1024a33.689594 33.689594 0 0 1-33.570127-33.809061c0-18.67093 15.018664-33.809061 33.570127-33.809061h653.823891c18.51733 0 33.553061 15.138131 33.553062 33.791994C1015.475459 1008.878936 1000.456795 1024 981.905331 1024H328.098507z" fill="#2E67DF" p-id="1993"></path></svg>