<?xml version="1.0" encoding="UTF-8"?>
<svg width="123px" height="126px" viewBox="0 0 123 126" version="1.1" xmlns="http://www.w3.org/2000/svg" xmlns:xlink="http://www.w3.org/1999/xlink">
    <title>Sorceress</title>
    <defs>
        <linearGradient x1="49.9996444%" y1="87.9204694%" x2="49.9996444%" y2="-21.1695064%" id="linearGradient-1">
            <stop stop-color="#FFC3B0" offset="0.51%"></stop>
            <stop stop-color="#E8897B" offset="100%"></stop>
        </linearGradient>
        <linearGradient x1="49.9991075%" y1="90.5089002%" x2="49.9991075%" y2="-19.5117556%" id="linearGradient-2">
            <stop stop-color="#FFC3B0" offset="0.51%"></stop>
            <stop stop-color="#E8897B" offset="100%"></stop>
        </linearGradient>
    </defs>
    <g id="Page-1" stroke="none" stroke-width="1" fill="none" fill-rule="evenodd">
        <g id="30-Fantasy-and-Role-Play-Game-Icons" transform="translate(-1201.000000, -157.000000)" fill-rule="nonzero">
            <g id="Sorceress" transform="translate(1201.000000, 157.000000)">
                <path d="M80.4996012,45.4267649 L80.0325031,66.4155538 C80.0325031,66.4155538 79.2253313,83.8610319 63.0808896,80.3736932 C63.0808896,80.3736932 58.529638,67.6537171 63.9766012,42.8128924 L80.4996012,45.4267649 Z" id="Path" fill="#AD3A4C"></path>
                <path d="M63.4649816,67.9192709 C63.4649816,67.9192709 60.9096503,79.1824661 67.6180552,82.2478805 C68.4458528,82.6263825 69.3518773,82.7875219 70.2611718,82.8311952 C73.0763374,82.9669841 82.0550859,84.2902351 80.2659264,95.7364064 C80.2659264,95.7364064 76.0957485,103.311968 56.7130613,105.174913 C56.7130613,105.174913 39.8193006,105.298853 32.1035031,93.5012869 C32.1035031,93.5012869 34.592681,82.3249363 41.9349509,81.8277131 C41.9349509,81.8277131 45.8958528,81.7639602 48.8511227,80.4944223 C50.4767853,79.7961514 51.5900736,78.2655777 51.8151963,76.5141275 L53.6335337,62.3597092 L63.4649816,67.9192709 Z" id="Path" fill="url(#linearGradient-1)"></path>
                <path d="M53.6332822,62.3597092 L52.587908,70.497 L65.1839632,80.3736932 L65.1839632,80.3736932 C61.623,76.0490319 63.4649816,67.9192709 63.4649816,67.9192709 L53.6332822,62.3597092 Z" id="Path" fill="#E8897B"></path>
                <path d="M80.2656748,95.7364064 C82.0128282,84.5570438 73.4918712,83.035004 70.4709509,82.843494 C72.9810061,84.5698446 77.5657117,89.1111155 76.934362,98.9817849 C79.4645399,97.1909283 80.2656748,95.7364064 80.2656748,95.7364064 Z" id="Path" fill="#E8897B"></path>
                <path d="M56.7228712,99.2696773 C57.5916687,99.9305498 59.5164049,101.767088 59.6995215,105.17461 L62.9007914,105.17461 C62.9007914,105.17461 61.9502454,100.781677 64.2359325,98.2985737 C64.329,98.1976733 64.2228528,98.0428088 64.0963313,98.0962709 C63.2461472,98.4546932 61.689908,99.7641394 60.8777055,101.153151 C60.8777055,101.153151 59.6107301,99.4247928 56.8234847,99.0412709 C56.6936933,99.0237012 56.6187362,99.1906135 56.7228712,99.2696773 Z" id="Path" fill="#E8897B"></path>
                <path d="M58.3638773,86.1493625 C57.5431227,86.1493625 50.735362,85.5326653 48.4461534,80.0847968 C48.2562454,79.632753 48.4964601,79.1114343 48.9663252,78.9693705 L48.9663252,78.9693705 C49.3642515,78.8491434 49.7946258,79.0436653 49.9538466,79.4264343 C51.9389509,84.2026375 58.1691902,84.5048367 58.4244969,84.5070956 C62.5561902,84.5065936 64.6723436,81.5967968 65.4015399,80.3177211 C65.5949693,79.9783745 66.0047178,79.8312908 66.3737178,79.9592988 L66.3737178,79.9592988 C66.8566626,80.1267131 67.0727301,80.6886932 66.8176748,81.1309482 C65.8731656,82.7669402 63.3278957,86.1486096 58.4529202,86.1486096 C58.4501534,86.1488606 58.4192147,86.1493625 58.3638773,86.1493625 Z" id="Path" fill="#333345"></path>
                <path d="M43.9057178,38.1727291 L42.464681,46.4026375 C42.464681,46.4026375 32.192546,46.1471235 20.4791227,49.6018327 C20.4791227,49.6018327 -1.39827607,56.5401155 0.0711840491,33.8109203 L43.9057178,38.1727291 Z" id="Path" fill="#6D4D7A"></path>
                <path d="M76.8480859,45.1506693 L76.2728282,64.6769044 C76.2670429,64.8659044 76.2522025,65.0488805 76.2255399,65.2361235 C76.1085767,66.0511076 75.6880123,68.1381394 74.3279693,69.6413546 C73.1933006,70.8950797 71.4199877,71.3561594 69.7601166,71.0245936 C66.4076748,70.3544343 57.9863252,68.2332669 54.3026135,63.2939163 L54.3026135,41.0865418 L76.8480859,45.1506693 Z" id="Path" fill="url(#linearGradient-2)"></path>
                <path d="M74.3277178,69.6413546 C75.6877607,68.1381394 76.1083252,66.0511076 76.2252883,65.2358725 C76.2519509,65.0491315 76.2667914,64.8659044 76.2725767,64.6769044 L76.8478344,45.1506693 L54.302362,41.0865418 L54.302362,47.2776096 C57.8600552,48.2773267 67.8182761,51.3128725 72.5694969,55.1804701 C73.229773,55.7181036 73.5879571,56.5408685 73.5879571,57.390992 L73.5879571,65.8834422 C73.5879571,65.8834422 73.6480736,68.5329562 72.3956871,70.8714861 C73.1268957,70.6315339 73.7982393,70.2264263 74.3277178,69.6413546 Z" id="Path" fill="#E8897B"></path>
                <path d="M67.2799939,56.1076494 L70.535092,56.1076494 C71.0477178,56.1076494 71.3895521,56.6515578 71.1485828,57.1033506 C70.769773,57.8141713 70.0858528,58.6449681 68.958227,58.6449681 C68.958227,58.6449681 67.3519325,58.6193665 66.6461288,57.0687131 C66.4416319,56.6199323 66.7862331,56.1076494 67.2799939,56.1076494 Z" id="Path" fill="#E8897B"></path>
                <path d="M72.6567791,49.3051554 L72.6567791,49.3051554 C72.1423926,49.3051554 71.7253497,48.889004 71.7253497,48.3759681 L71.7253497,46.3559522 C71.7253497,45.8426653 72.1423926,45.4267649 72.6567791,45.4267649 L72.6567791,45.4267649 C73.1711656,45.4267649 73.5877056,45.8426653 73.5877056,46.3559522 L73.5877056,48.3759681 C73.5879571,48.889255 73.1711656,49.3051554 72.6567791,49.3051554 Z" id="Path" fill="#333345"></path>
                <path d="M67.8056994,43.5038845 C67.8056994,43.5038845 66.6272638,52.4107291 56.7128098,56.639259 L55.5401595,73.4943944 C55.0735644,80.2030159 49.7194172,85.7028406 42.9858589,85.9764263 C42.7194847,85.9872191 42.4478282,85.9917371 42.170638,85.9892271 C40.0353681,85.9701514 38.0495092,84.8853466 36.7681963,83.1808327 L36.761908,83.1725498 C35.6300061,81.6660717 35.1510859,79.7763227 35.4292822,77.9139323 C35.9165031,74.655251 37.0333129,69.1509084 39.5031227,63.3885418 C40.2690429,61.6014502 40.5915092,59.662757 40.5112699,57.7205498 C40.2949509,52.4714701 40.0655521,42.1673307 41.3881166,38.7357131 L67.8056994,43.5038845 Z" id="Path" fill="#E25A6C"></path>
                <path d="M40.4712761,44.9069522 C43.6234969,45.5055777 50.7964847,46.9826892 55.5298466,48.8455817 C56.5100736,49.2313625 56.8830982,50.4070279 56.3173988,51.2937968 C55.8115644,52.0866932 55.1050061,53.0557888 54.2027546,53.9681594 C53.3254049,54.8551793 52.8542822,56.0632231 52.9149018,57.3081633 C53.2227791,63.6146892 53.2127178,82.2222789 42.7431288,85.9801912 C42.7443865,85.9864661 42.7428773,85.9774303 42.7438834,85.9839562 C49.5908834,85.8341116 55.0680307,80.2830837 55.540411,73.4943944 L56.7130613,56.639259 C66.6275153,52.4107291 67.8059509,43.5038845 67.8059509,43.5038845 L41.3891227,38.7354622 C40.8903313,40.0288446 40.612638,42.2993546 40.4712761,44.9069522 Z" id="Path" fill="#AD3A4C"></path>
                <path d="M0.0709325153,33.8109203 C0.0709325153,33.8109203 43.8405706,40.6227012 83.7954479,47.8353227 C83.7954479,47.8353227 98.228454,50.0797291 107.172239,49.5087131 C107.858423,49.4650398 108.527252,49.3116813 109.171178,49.0722311 C112.587509,47.8021912 122.914227,43.0468207 122.746706,32.0080159 C122.746706,32.0080159 105.872313,27.9785259 78.7627607,30.3130398 C78.7627607,30.3130398 81.1447853,15.1282829 56.7133129,0.814482072 C55.6908282,0.215354582 54.4862331,-0.00853386454 53.3261595,0.235434263 C49.9878037,0.93747012 42.1897546,3.46926693 29.3607791,12.598996 C29.3607791,12.598996 27.8181227,11.3161554 25.814908,10.1678486 C24.7632454,9.56495618 23.4635706,9.61917131 22.4410859,10.270506 C20.5601166,11.468259 17.4169509,13.8296295 14.6209018,17.6337251 C13.9206319,18.586506 14.8855153,19.8736135 15.993773,19.4577131 C17.5062454,18.8902112 19.2727669,18.2875697 20.7500245,17.9484741 C21.8117485,17.704757 22.9205092,17.9306534 23.8270368,18.5337968 C25.2406564,19.4747809 27.5142699,21.1145378 29.3924724,23.057247 C30.3259141,24.0225777 31.7719816,24.2720677 32.9604785,23.6450797 C35.5407117,22.2839283 39.8857055,20.1542271 42.2956503,19.8766255 L46.0110552,24.7835976 C46.0110552,24.7835976 43.121184,28.664749 41.1946871,32.6470518 C41.1949387,32.6470518 23.2110307,34.837494 0.0709325153,33.8109203 Z" id="Path" fill="#936FA0"></path>
                <path d="M35.4846196,22.3702709 C37.8414908,21.231 40.5648466,20.0756653 42.2959018,19.8763745 L40.1764785,16.4520359 C39.8590429,15.939251 39.0973988,15.9849323 38.8508957,16.5353665 C38.2238221,17.9341673 37.0795951,20.2270159 35.4846196,22.3702709 Z" id="Path" fill="#6D4D7A"></path>
                <path d="M68.1799816,28.2004064 C68.2785828,29.358502 67.8484601,30.4990279 66.9934969,31.2886614 C66.4630123,31.7788566 65.8203436,32.3536375 65.1615767,32.8995538 C64.5254479,33.4266454 64.8760859,34.4559801 65.7028773,34.4722948 C70.7607178,34.5719402 81.8093374,34.903004 87.0193558,35.9428805 C87.0193558,35.9428805 93.2241902,37.3062908 95.2565828,41.5940558 C95.7870675,42.712745 95.7083374,44.0194303 95.0208957,45.0497689 C94.2693129,46.176741 92.8979509,47.6774462 90.550638,48.7158167 C95.4967975,49.2707689 102.186337,49.8274781 107.172239,49.5089641 C107.858172,49.4652908 108.527,49.3119323 109.170926,49.0724821 C112.587258,47.8024422 122.913975,43.0470717 122.746454,32.0082669 C122.746454,32.0082669 105.872061,27.9787769 78.7625092,30.3132908 C78.7625092,30.3132908 81.1445337,15.1285339 56.7130613,0.814733068 C56.7130613,0.814231076 66.6594601,10.3011275 68.1799816,28.2004064 Z" id="Path" fill="#6D4D7A"></path>
                <path d="M63.9766012,87.319255 C63.9766012,84.7633625 61.9001902,82.6913904 59.3388221,82.6913904 C56.7772025,82.6913904 54.7007914,84.7633625 54.7007914,87.319255 C54.7007914,89.3749124 56.0452393,91.1155697 57.903319,91.7187131 L58.093227,93.5994263 C58.1480613,94.1423307 58.6335215,94.5381514 59.1778405,94.4831833 L61.0731472,94.2929283 C61.6172147,94.2379602 62.014135,93.7537888 61.9590491,93.2103825 L61.7620982,91.2593904 C63.0889387,90.4454104 63.9766012,88.9873745 63.9766012,87.319255 Z" id="Path" fill="#FFFFFF"></path>
                <ellipse id="Oval" fill="#333345" cx="57.8930061" cy="87.6483108" rx="1.21918405" ry="1.21657769"></ellipse>
                <ellipse id="Oval" fill="#333345" cx="61.428816" cy="87.2005339" rx="1.21943558" ry="1.21682869"></ellipse>
                <path d="M30.0897239,92.860243 C30.5693988,91.8989283 31.8288282,91.6597291 32.6224172,92.3846056 C36.6034417,96.0225418 47.9840859,104.981594 61.4094479,102.690753 C61.4094479,102.690753 73.2360613,100.807279 80.3157301,94.1102032 C80.9279632,93.5309044 81.9074356,93.6596653 82.350135,94.376008 C83.0310368,95.4771275 84.1005583,96.9928924 85.4668896,98.2400916 C86.0504479,98.7724542 86.3107853,99.5711235 86.1138344,100.334904 C85.9292086,101.052251 85.6137853,101.962363 85.0840552,102.827797 C84.5442638,103.709797 84.2680798,104.722064 84.3883129,105.748386 C84.839816,109.603183 85.0249448,118.903339 76.8475828,121.443167 C76.8475828,121.443167 70.9554049,122.649203 66.4285521,120.012992 C65.8165706,119.656829 65.1107669,119.494936 64.4049632,119.553418 L64.4049632,119.553418 C63.3653742,119.640263 62.4294172,120.190446 61.835546,121.046092 C60.3980307,123.11706 56.6609939,126.746964 48.5304172,125.665171 C48.5304172,125.665171 38.6811104,124.761335 37.9866258,114.550064 C37.8933067,113.178873 37.5268221,111.843574 36.8423988,110.651343 C35.6212025,108.524151 33.2741411,105.423598 29.2362699,103.411112 C27.6168957,102.604159 26.8929816,100.695837 27.4868528,98.9893147 C28.0457607,97.3854502 28.8811043,95.2828566 30.0897239,92.860243 Z" id="Path" fill="#936FA0"></path>
                <path d="M58.488638,109.54194 C58.0954908,109.136833 57.5572086,108.91194 56.9922638,108.91194 C56.0246135,108.91194 55.1927914,109.581347 54.9633926,110.519068 C52.1613067,121.974024 44.9493313,122.600259 41.1021227,122.041793 C44.2211411,125.26659 48.5309202,125.66492 48.5309202,125.66492 C56.6617485,126.746713 60.3987853,123.116809 61.8360491,121.045841 C62.6568037,114.675813 59.8421411,110.936223 58.488638,109.54194 Z" id="Path" fill="#6D4D7A"></path>
                <path d="M67.9873067,120.752175 C72.1992393,122.388167 76.8480859,121.442916 76.8480859,121.442916 C85.0254479,118.903088 84.8400675,109.602932 84.388816,105.748135 C84.2683313,104.721813 84.5445153,103.709546 85.0845583,102.827546 C85.6140368,101.962363 85.9294601,101.052251 86.1143374,100.334653 C86.3112883,99.5708725 86.0506994,98.7722032 85.4673926,98.2398406 C84.1010613,96.9926414 83.0315399,95.4768765 82.350638,94.375757 C81.9079387,93.6594143 80.9284663,93.5309044 80.3162331,94.1099522 C79.2494785,95.1189562 78.0740613,96.0167689 76.848589,96.8171952 L76.8483374,96.8187012 C78.4030675,113.791052 71.1382699,119.214323 67.9873067,120.752175 Z" id="Path" fill="#6D4D7A"></path>
            </g>
        </g>
    </g>
</svg>