<?xml version="1.0" standalone="no"?><!DOCTYPE svg PUBLIC "-//W3C//DTD SVG 1.1//EN" "http://www.w3.org/Graphics/SVG/1.1/DTD/svg11.dtd"><svg t="1615912160723" class="icon" viewBox="0 0 1024 1024" version="1.1" xmlns="http://www.w3.org/2000/svg" p-id="1470" xmlns:xlink="http://www.w3.org/1999/xlink" width="64" height="64"><defs><style type="text/css">@font-face { font-family: uc-nexus-iconfont; src: url("chrome-extension://pogijhnlcfmcppgimcaccdkmbedjkmhi/res/font_9qmmi8b8jsxxbt9.woff") format("woff"), url("chrome-extension://pogijhnlcfmcppgimcaccdkmbedjkmhi/res/font_9qmmi8b8jsxxbt9.ttf") format("truetype"); }
</style></defs><path d="M774.1 974.1c-9.5 0-18.5-4.5-24.2-12.3L615.3 778.5c-9.8-13.4-6.9-32.1 6.4-41.9 13.4-9.8 32.1-6.9 41.9 6.4L765 881.1l20.2-55.8c4.1-11.4 14.8-19.2 26.9-19.8l59.3-2.5L770 664.9c-9.8-13.4-6.9-32.1 6.4-41.9 13.4-9.8 32.1-6.9 41.9 6.4L953 812.8c6.6 8.9 7.7 20.7 2.9 30.7s-14.7 16.5-25.8 17l-95.4 4.1-32.5 89.7c-3.8 10.4-13 17.9-23.9 19.5-1.4 0.2-2.8 0.3-4.2 0.3z" fill="#CE2C1B" p-id="1471"></path><path d="M250.1 974.1c-1.4 0-2.8-0.1-4.3-0.3-11-1.6-20.2-9.1-23.9-19.5l-32.5-89.7-95.4-4.1c-11.1-0.5-21-7-25.8-17s-3.7-21.8 2.9-30.7l134.6-183.4c9.8-13.4 28.6-16.2 41.9-6.4 13.4 9.8 16.2 28.6 6.4 41.9L152.8 803l59.3 2.5c12.1 0.5 22.8 8.3 26.9 19.8l20.2 55.8L360.6 743c9.8-13.4 28.6-16.2 41.9-6.4 13.4 9.8 16.2 28.6 6.4 41.9L274.3 961.9c-5.7 7.8-14.7 12.2-24.2 12.2z" fill="#FFDF2A" p-id="1472"></path><path d="M250.1 974.1c-1.4 0-2.8-0.1-4.3-0.3-11-1.6-20.2-9.1-23.9-19.5l-32.5-89.7-95.4-4.1c-11.1-0.5-21-7-25.8-17s-3.7-21.8 2.9-30.7l134.6-183.4c9.8-13.4 28.6-16.2 41.9-6.4 13.4 9.8 16.2 28.6 6.4 41.9L152.8 803l59.3 2.5c12.1 0.5 22.8 8.3 26.9 19.8l20.2 55.8L360.6 743c9.8-13.4 28.6-16.2 41.9-6.4 13.4 9.8 16.2 28.6 6.4 41.9L274.3 961.9c-5.7 7.8-14.7 12.2-24.2 12.2z" fill="#CE2C1B" p-id="1473"></path><path d="M511.3 785.4c-48.6 0-95.8-9.5-140.2-28.3-42.9-18.1-81.4-44.1-114.5-77.2-33.1-33.1-59-71.6-77.2-114.5-18.8-44.4-28.3-91.6-28.3-140.2s9.5-95.8 28.3-140.2c18.1-42.9 44.1-81.4 77.2-114.5s71.6-59 114.5-77.2C415.5 74.5 462.7 65 511.3 65s95.8 9.5 140.2 28.3c42.9 18.1 81.4 44.1 114.5 77.2s59 71.6 77.2 114.5c18.8 44.4 28.3 91.6 28.3 140.2S862 521 843.2 565.4c-18.1 42.9-44.1 81.4-77.2 114.5-33.1 33.1-71.6 59-114.5 77.2-44.4 18.8-91.6 28.3-140.2 28.3z m0-660.3c-165.5 0-300.2 134.7-300.2 300.2s134.7 300.2 300.2 300.2 300.2-134.7 300.2-300.2-134.7-300.2-300.2-300.2z" fill="#262626" p-id="1474"></path><path d="M511.3 624.5c-109.9 0-199.3-89.4-199.3-199.3s89.4-199.3 199.3-199.3 199.3 89.4 199.3 199.3-89.4 199.3-199.3 199.3z m0-338.5C434.5 286 372 348.5 372 425.3s62.5 139.3 139.3 139.3 139.3-62.5 139.3-139.3S588.1 286 511.3 286z" fill="#CE2C1B" p-id="1475"></path></svg>