<?xml version="1.0" standalone="no"?><!DOCTYPE svg PUBLIC "-//W3C//DTD SVG 1.1//EN" "http://www.w3.org/Graphics/SVG/1.1/DTD/svg11.dtd"><svg t="1607690641936" class="icon" viewBox="0 0 1024 1024" version="1.1" xmlns="http://www.w3.org/2000/svg" p-id="26301" xmlns:xlink="http://www.w3.org/1999/xlink" width="32" height="32"><defs><style type="text/css">@font-face { font-family: uc-nexus-iconfont; src: url("chrome-extension://pogijhnlcfmcppgimcaccdkmbedjkmhi/res/font_9qmmi8b8jsxxbt9.woff") format("woff"), url("chrome-extension://pogijhnlcfmcppgimcaccdkmbedjkmhi/res/font_9qmmi8b8jsxxbt9.ttf") format("truetype"); }
</style></defs><path d="M237.227959 686.304861c5.486968 1.214664 10.265808 1.805112 14.606673 1.805112 15.95232 0 29.099758-6.875594 39.086204-20.448727 7.424086-9.991562 15.139815-20.001543 22.614043-29.700439 10.793834-13.823843 21.296025-27.40107 31.140231-41.521673 4.759397-6.788613 9.42465-11.310603 16.726963-11.310603 3.207042 0 6.903224 0.854461 11.981893 2.772136 42.866297 16.095583 86.383416 24.255427 129.340787 24.255427 46.083571 0 92.452645-9.386788 137.827065-27.901467 4.541433-1.845021 7.904017-2.667759 10.900257-2.667759 6.606465 0 11.025101 4.205788 14.812358 8.743128 20.324908 24.235984 42.665729 49.897434 70.304205 80.756256 9.246595 10.296507 20.487613 15.516392 33.414018 15.516391 12.526291 0 25.954115-4.869914 39.908941-14.476712 24.781406-17.052374 29.91124-36.117592 16.638959-61.809741-5.886057-11.333116-11.970636-23.055089-18.064424-34.594913l-4.530177-8.653077c-5.77247-11.017938-11.742439-22.409382-17.543561-33.729196l-5.895267-11.44568-2.323928-4.543479c-10.260691-20.051685-20.871353-40.784892-29.92045-61.697178-1.564635-3.634784-0.529049-8.674567 0.995677-14.885011 0.107447-0.524956 0.23843-1.051959 0.369413-1.576915 0.112564-0.443092 0.224104-0.886183 0.313132-1.329275l0.568958-2.832512h2.90005c0.407276 0 0.751107 0.052189 1.044795 0.100284h0.083912l0.956791 0.12382c4.52506 0.585331 8.800433 1.137916 12.653181 2.692319 4.38589 1.664919 8.504698 4.051269 12.866029 6.577812l0.286526 0.166799a142.594649 142.594649 0 0 0 8.321526 4.627391c0.907673 0.449231 2.745531 0.982374 6.339381 0.982374 15.372106 0 43.159986-9.593496 44.341905-10.004865 25.267477-8.731872 30.30419-14.622022 31.2794-16.715707 1.079588-2.381234 1.066285-5.037736 0.88823-7.626701-0.711198-14.600533-1.214664-28.990265-1.699712-42.913369l-0.032745-1.016143c-1.084705-33.010835-2.205225-67.147306-7.017834-100.206236-1.11745-7.426133-2.778276-14.908548-4.383844-22.144346l-0.294712-1.326205c-6.393617-28.113291-13.003152-57.18542 15.041578-87.61036l2.178618-2.394536-3.111874-1.059122c-8.761548-3.02387-16.914228-6.340405-24.799825-9.54847l-3.958149-1.608638c-18.069541-7.435343-35.136242-14.456247-52.40351-15.706727a329.076854 329.076854 0 0 0-23.704888-0.867763c-82.371032 0-155.988704 32.228005-218.812541 95.79067-24.762987 24.967648-51.928696 50.614771-82.756819 69.057818-36.488029 21.866007-78.237899 32.95353-124.08918 32.95353-17.154705 0-35.133172-1.566682-53.429886-4.653997-4.697999-0.786922-9.202593-1.187035-13.389962-1.187035-12.721743 0-22.611997 3.566222-29.39754 10.596336-9.045003 9.374508-11.69946 24.229844-7.673774 42.97272 2.298346 10.876722 6.943133 21.331841 11.433401 31.4462l0.11154 0.25071c3.179412 7.028067 6.462179 14.575973 8.922207 22.13002 2.581802 7.866155 5.010107 18.845207 1.926885 26.448372-12.411681 31.470759-25.793456 63.807235-37.359886 91.64014l-2.943028 7.110954c-8.931416 21.570271-18.166755 43.8763-26.989701 65.937759-3.093455 7.746428-5.4225 19.392676-2.694366 28.813232 5.734608 19.107173 21.25407 31.709189 46.095851 37.446867z m1.352811-53.590545c6.045693-14.611789 12.094456-29.472242 17.944698-43.843554l0.119727-0.294713c15.904225-38.903032 33.930787-82.995249 52.646034-125.576043 7.995091-18.2302 10.06831-33.010835-4.287653-50.354851-6.449899-7.852852-10.760065-17.21201-15.749706-28.049847l-0.319272-0.692778c-1.166569-2.614547-2.372024-5.318122-3.648086-7.957229l-2.474355-5.116531 5.700839 0.065492c8.688893 0.098237 17.011442 0.294712 25.420973 0.597611 11.666714 0.342808 21.367657 0.605797 31.153534 0.605797 14.017248 0 25.563212-0.565888 36.332486-1.778506 77.760015-8.736988 142.520971-42.689265 192.483896-100.914364 49.641607-57.821917 112.230084-88.473007 191.31528-93.704149a72.656787 72.656787 0 0 1 5.29868-0.186242c7.476275 0 15.110139 1.004887 23.193235 2.069125l2.469238 0.324388c1.302669 0.167822 2.641153 0.352017 4.000104 0.540306 1.860371 0.25685 3.758604 0.51984 5.656836 0.74906l4.501524 0.541329-19.33844 50.195216 7.773034-2.249227 1.269923 2.769066c0.970094 2.114151 2.001587 4.163833 3.096524 6.335289 0.655939 1.303692 1.314948 2.610454 1.951445 3.916193 5.516644 10.785647 10.728342 20.973684 12.304234 31.857568 5.002944 33.219589 7.027044 67.521836 8.985652 100.694354l0.431835 7.53665c0.363274 6.845918-2.211365 12.770861-7.271614 16.705474-3.560082 2.715855-8.063653 4.151553-13.024641 4.151553a26.687826 26.687826 0 0 1-8.185427-1.309832c-3.619434-1.165546-6.997368-2.976798-10.649547-5.011131l-1.251504-0.665149c-1.270946-0.678452-2.584871-1.38044-3.862981-1.982144-15.715937-7.803733-25.762757-12.034081-33.830503-12.034081-9.071609 0-16.593933 5.610788-29.048593 17.407462-23.176862 21.855774-28.785603 47.091528-16.217356 72.979128 17.011442 35.189454 34.788318 70.094428 51.981908 103.852276l0.174985 0.343831c7.503904 14.751982 15.262612 30.008454 22.796193 45.017287a793.173844 793.173844 0 0 1 4.688789 9.54233l1.381463 2.739391-1.913583 1.798972c-2.110057 1.984191-4.603855 4.101411-7.523347 4.101411a5.822612 5.822612 0 0 1-0.876973-0.066515c-4.554736-0.248663-9.118682-4.919033-12.984733-9.470699-22.892383-26.51898-46.36805-53.367465-66.576301-76.454276l-23.281239-26.649963-1.327228 0.3776c-11.115152 3.174296-21.976524 6.564509-32.478716 9.844206-2.970658 0.927115-5.929036 1.849114-8.864901 2.759856-27.287483 8.55791-55.503105 17.408485-84.347037 22.968108a250.737648 250.737648 0 0 1-47.585785 4.585435c-41.138956 0.001023-82.774215-9.943466-127.282918-30.399357-7.27673-3.339048-13.622252-4.964058-19.400862-4.964058-10.326183 0-18.956747 5.290493-27.161617 16.648168-11.537777 15.992229-23.886013 31.959899-35.827996 47.402613l-1.482771 1.917676c-8.627495 11.132548-17.549701 22.644743-26.117844 34.057677-4.040013 5.41329-7.53665 9.076726-11.502985 9.368368a7.910157 7.910157 0 0 1-0.442068 0.013303c-2.979868 0-5.7694-1.898233-7.865132-3.552919l-2.090614-1.64957 1.021259-2.451841z m518.711866-307.663149h0.659009c18.292622-0.3776 33.511231-15.810081 33.242102-33.695426-0.358157-17.533328-15.929808-32.346709-34.001395-32.346709h-0.447185c-9.066493 0.130983-17.452487 3.634784-23.613814 9.862625-6.15314 6.223748-9.470699 14.553461-9.339716 23.469528 0.089028 8.650007 3.714602 16.876366 10.209526 23.165605 6.358825 6.155187 14.629185 9.544377 23.291473 9.544377z m189.011818 374.465601c-18.24555-28.036543-36.150338-41.094954-56.34631-41.094954-10.243295 0-21.093411 3.342118-33.187866 10.226922-6.721075 3.77907-13.349029 7.747451-18.414395 10.80816l-1.960655 1.14815c-19.818371 11.617595-40.312124 23.630187-61.734016 32.007994-91.406826 35.843346-182.15055 54.019311-269.708722 54.023404h-0.029676c-117.969808 0-232.731552-32.91976-341.070002-97.838305-12.010545-7.203052-22.918989-10.706853-33.347503-10.706853-20.550035 0-39.312354 14.177907-57.355289 43.344181-8.081049 13.0799-10.321066 26.713408-6.476505 39.424918 3.903913 12.905938 14.053064 24.950252 29.343306 34.824133 110.596887 71.164806 248.357438 114.598015 368.463909 116.179023h0.100284c191.650925 0 342.272387-37.995359 460.46937-116.152417 16.07307-10.656711 26.042119-22.677489 29.635971-35.724643 3.547803-12.892635 0.730641-26.508747-8.381901-40.469713z m-40.990577 30.776957c-103.071494 73.754794-242.791675 114.372887-393.423371 114.372887-150.297075 0-291.37723-40.466644-397.253606-113.944122l-3.090385-2.14485 17.697058-22.196534 2.629897 1.47663c124.465756 69.905116 251.519454 105.350396 377.634779 105.350397 125.880989 0 253.273401-35.313274 378.64069-104.96154l2.572592-1.428536 17.667381 21.27556-3.075035 2.200108z" p-id="26302" fill="#d4237a"></path></svg>