<?xml version="1.0" standalone="no"?><!DOCTYPE svg PUBLIC "-//W3C//DTD SVG 1.1//EN" "http://www.w3.org/Graphics/SVG/1.1/DTD/svg11.dtd"><svg t="1607690136793" class="icon" viewBox="0 0 1024 1024" version="1.1" xmlns="http://www.w3.org/2000/svg" p-id="23182" xmlns:xlink="http://www.w3.org/1999/xlink" width="32" height="32"><defs><style type="text/css">@font-face { font-family: uc-nexus-iconfont; src: url("chrome-extension://pogijhnlcfmcppgimcaccdkmbedjkmhi/res/font_9qmmi8b8jsxxbt9.woff") format("woff"), url("chrome-extension://pogijhnlcfmcppgimcaccdkmbedjkmhi/res/font_9qmmi8b8jsxxbt9.ttf") format("truetype"); }
</style></defs><path d="M373.333333 320c-17.066667 0-32 14.933333-32 32v362.666667c0 17.066667 14.933333 32 32 32s32-14.933333 32-32v-362.666667c0-17.066667-14.933333-32-32-32zM672 320c-17.066667 0-32 14.933333-32 32v362.666667c0 17.066667 14.933333 32 32 32s32-14.933333 32-32v-362.666667c0-17.066667-14.933333-32-32-32z" fill="#d4237a" p-id="23183"></path><path d="M789.333333 106.666667h-106.666666V64c0-36.266667-27.733333-64-64-64H405.333333c-36.266667 0-64 27.733333-64 64v42.666667h-106.666666c-70.4 0-128 57.6-128 128v597.333333c0 70.4 57.6 128 128 128h106.666666v32c0 17.066667 14.933333 32 32 32s32-14.933333 32-32V960h234.666667v32c0 17.066667 14.933333 32 32 32s32-14.933333 32-32V960h85.333333c70.4 0 128-57.6 128-128V234.666667c0-70.4-57.6-128-128-128zM405.333333 64h213.333334v42.666667H405.333333V64z m448 768c0 36.266667-27.733333 64-64 64H234.666667c-36.266667 0-64-27.733333-64-64V234.666667c0-36.266667 27.733333-64 64-64h554.666666c36.266667 0 64 27.733333 64 64v597.333333z" fill="#d4237a" p-id="23184"></path></svg>